<?xml version="1.0" encoding="iso-8859-1"?>
<!-- Generator: Adobe Illustrator 19.0.0, SVG Export Plug-In . SVG Version: 6.00 Build 0)  -->
<svg version="1.1" id="Capa_1" xmlns="http://www.w3.org/2000/svg" xmlns:xlink="http://www.w3.org/1999/xlink" x="0px" y="0px"
	 viewBox="0 0 512 512" style="enable-background:new 0 0 512 512;" xml:space="preserve">
<circle style="fill:#FFFFFF;" cx="256" cy="256" r="256"/>
<path style="fill:#FF0000;" d="M256,0c-0.04,0-0.08,0-0.12,0c-0.008,0-0.024,0-0.032,0c-0.024,0-0.056,0-0.08,0
	c-0.016,0-0.024,0-0.04,0c-0.024,0-0.056,0-0.08,0c-0.008,0-0.032,0-0.04,0c-0.024,0-0.056,0-0.08,0c-0.016,0-0.016,0-0.032,0
	c-0.04,0-0.08,0-0.112,0c-0.008,0-0.016,0-0.024,0c-0.032,0-0.064,0-0.088,0c-0.008,0-0.032,0-0.04,0c-0.024,0-0.056,0-0.08,0
	c-0.016,0-0.024,0-0.04,0c-0.024,0-0.048,0-0.072,0c-0.008,0-0.04,0-0.048,0c-0.024,0-0.056,0-0.08,0c-0.008,0-0.032,0-0.04,0
	c-0.04,0-0.072,0-0.112,0c-0.016,0-0.024,0-0.04,0c-0.024,0-0.048,0-0.072,0c-0.016,0-0.032,0-0.048,0c-0.024,0-0.048,0-0.072,0
	c-0.016,0-0.032,0-0.048,0c-0.024,0-0.048,0-0.072,0c-0.016,0-0.024,0-0.04,0c-0.04,0-0.072,0-0.112,0c-0.008,0-0.024,0-0.032,0
	c-0.032,0-0.064,0-0.088,0c-0.016,0-0.032,0-0.048,0c-0.024,0-0.04,0-0.064,0c-0.016,0-0.04,0-0.056,0c-0.024,0-0.04,0-0.064,0
	c-0.016,0-0.04,0-0.056,0c-0.024,0-0.04,0-0.064,0c-0.016,0-0.032,0-0.048,0c-0.04,0-0.072,0-0.112,0c-0.016,0-0.024,0-0.04,0
	c-0.024,0-0.048,0-0.072,0c-0.016,0-0.04,0-0.056,0c-0.024,0-0.04,0-0.064,0c-0.016,0-0.04,0-0.056,0s-0.04,0-0.056,0
	c-0.024,0-0.032,0-0.056,0c-0.016,0-0.04,0-0.056,0c-0.032,0-0.064,0-0.104,0c-0.016,0-0.04,0-0.056,0c-0.024,0-0.04,0-0.064,0
	c-0.016,0-0.032,0-0.048,0s-0.048,0-0.064,0c-0.016,0-0.032,0-0.056,0c-0.016,0-0.04,0-0.056,0c-0.024,0-0.04,0-0.064,0
	c-0.016,0-0.04,0-0.056,0s-0.04,0-0.056,0c-0.04,0-0.072,0-0.112,0c-0.016,0-0.032,0-0.048,0c-0.024,0-0.04,0-0.064,0
	c-0.016,0-0.032,0-0.048,0s-0.048,0-0.064,0c-0.016,0-0.032,0-0.048,0c-0.024,0-0.04,0-0.072,0c-0.016,0-0.024,0-0.04,0
	c-0.088,0-0.16,0-0.248,0c-0.016,0-0.024,0-0.04,0c-0.024,0-0.048,0-0.072,0c-0.016,0-0.024,0-0.04,0c-0.016,0-0.056,0-0.072,0
	s-0.024,0-0.04,0c-0.024,0-0.048,0-0.072,0c-0.008,0-0.016,0-0.024,0c-0.064,0-0.12,0-0.176,0h-0.008c-0.024,0-0.056,0-0.08,0
	c-0.008,0-0.024,0-0.032,0c-0.024,0-0.048,0-0.072,0c-0.016,0-0.024,0-0.04,0c-0.024,0-0.048,0-0.072,0c-0.008,0-0.024,0-0.032,0
	c-0.088,0-0.176,0-0.256,0.008c-0.008,0-0.024,0-0.032,0c-0.024,0-0.048,0-0.08,0c-0.008,0-0.024,0-0.032,0c-0.032,0-0.048,0-0.08,0
	c-0.008,0-0.024,0-0.032,0c-0.024,0-0.056,0-0.08,0c-0.008,0-0.016,0-0.016,0c-0.096,0-0.2,0.008-0.28,0.008
	c-0.008,0-0.016,0-0.024,0c-0.024,0-0.056,0-0.08,0c-0.008,0-0.016,0-0.032,0c-0.024,0-0.056,0-0.08,0c-0.008,0-0.024,0-0.032,0
	c-0.024,0-0.056,0-0.08,0l0,0c-0.072,0-0.136,0-0.2,0.008l0,0c-0.024,0-0.056,0-0.08,0c-0.008,0-0.024,0-0.032,0
	c-0.024,0-0.056,0-0.08,0c-0.008,0-0.016,0-0.032,0c-0.024,0-0.056,0-0.08,0c-0.008,0-0.008,0-0.016,0
	c-0.096,0-0.192,0.008-0.288,0.008h-0.008c-0.024,0-0.056,0-0.088,0c-0.008,0-0.016,0-0.024,0c-0.032,0-0.048,0-0.08,0
	c-0.008,0-0.016,0-0.024,0c-0.024,0-0.056,0-0.08,0c0,0-0.008,0-0.016,0c-0.104,0-0.184,0.008-0.288,0.008c-0.008,0-0.008,0-0.008,0
	c-0.04,0-0.056,0-0.088,0c-0.008,0-0.016,0-0.024,0c-0.032,0-0.048,0-0.088,0c0,0-0.008,0-0.016,0c-0.104,0-0.184,0.008-0.288,0.008
	h-0.016c-0.024,0-0.056,0-0.08,0c-0.008,0-0.024,0-0.032,0c-0.024,0-0.056,0-0.08,0c-0.008,0-0.024,0-0.032,0
	c-0.024,0-0.056,0-0.08,0c-0.008,0-0.016,0-0.024,0c-0.088,0-0.184,0.008-0.272,0.008c-0.008,0-0.016,0-0.032,0
	c-0.024,0-0.048,0-0.08,0c-0.008,0-0.024,0-0.032,0c-0.016,0-0.056,0-0.072,0s-0.024,0-0.04,0c-0.024,0-0.048,0-0.072,0
	c-0.008,0-0.024,0-0.032,0c-0.048,0-0.112,0-0.16,0.008c-0.008,0-0.016,0-0.016,0c-0.032,0-0.048,0-0.08,0c-0.016,0-0.032,0-0.04,0
	c-0.024,0-0.04,0-0.072,0c-0.016,0-0.032,0-0.048,0s-0.048,0-0.064,0c-0.016,0-0.032,0-0.048,0c-0.024,0-0.04,0-0.064,0
	s-0.048,0-0.072,0s-0.064,0-0.088,0c-0.016,0-0.04,0-0.056,0c-0.024,0-0.032,0-0.064,0c-0.016,0-0.04,0-0.056,0s-0.04,0-0.056,0
	c-0.024,0-0.04,0-0.064,0c-0.016,0-0.032,0-0.048,0c-0.024,0-0.048,0-0.072,0c-0.016,0-0.024,0-0.04,0c-0.04,0-0.072,0-0.112,0.008
	c-0.016,0-0.024,0-0.04,0c-0.024,0-0.048,0-0.08,0c-0.008,0-0.032,0-0.04,0c-0.024,0-0.048,0-0.072,0c-0.016,0-0.032,0-0.048,0
	c-0.024,0-0.048,0-0.072,0c-0.016,0-0.024,0-0.04,0c-0.032,0-0.072,0-0.104,0.008h-0.008c-0.04,0-0.08,0-0.12,0.008
	c-0.008,0-0.016,0-0.024,0c-0.032,0-0.056,0-0.088,0c-0.008,0-0.024,0-0.032,0c-0.032,0-0.056,0-0.088,0c-0.008,0-0.016,0-0.024,0
	c-0.04,0-0.072,0-0.112,0.008h-0.008c-0.08,0-0.16,0.008-0.24,0.008h-0.016c-0.04,0-0.072,0-0.112,0.008h-0.016
	c-0.04,0-0.072,0-0.112,0.008h-0.008c-1.328,0.064-2.648,0.136-3.976,0.216l0.496,7.984C245.624,8.16,250.84,8,256,8V0L256,0L256,0z
	 M224.08,1.968c-0.04,0.008-0.08,0.016-0.128,0.016l0,0c-3.616,0.448-7.208,0.976-10.776,1.576l0,0
	c-0.08,0.016-0.168,0.024-0.248,0.04l0,0c-0.04,0.008-0.072,0.016-0.112,0.016c-0.008,0-0.008,0-0.016,0
	c-0.032,0.008-0.064,0.008-0.096,0.016c-0.008,0-0.016,0-0.024,0.008c-0.04,0.008-0.072,0.016-0.112,0.016l0,0
	c-0.04,0.008-0.072,0.016-0.112,0.016c-0.016,0-0.024,0-0.04,0.008c-0.024,0.008-0.048,0.008-0.072,0.016
	c-0.016,0-0.024,0.008-0.048,0.008s-0.04,0.008-0.064,0.008c-0.024,0.008-0.032,0.008-0.056,0.008c-0.016,0-0.032,0.008-0.048,0.008
	c-0.072,0.016-0.152,0.024-0.232,0.04c-0.016,0-0.024,0.008-0.04,0.008c-0.024,0.008-0.048,0.008-0.072,0.016
	c-0.008,0-0.024,0-0.032,0.008c-0.024,0.008-0.056,0.008-0.08,0.016h-0.008c-1.136,0.2-2.256,0.4-3.392,0.616l1.48,7.864
	c5.048-0.952,10.2-1.76,15.312-2.392L224.08,1.968L224.08,1.968z M192.656,7.896c-0.608,0.152-1.216,0.312-1.816,0.472h-0.008
	c-0.032,0.008-0.072,0.016-0.104,0.032c-0.008,0-0.008,0-0.016,0c-0.08,0.024-0.16,0.04-0.232,0.064h-0.008
	c-0.032,0.008-0.072,0.016-0.104,0.024l-0.024,0.008c-0.032,0.008-0.064,0.016-0.096,0.024c-0.008,0-0.016,0-0.024,0.008
	c-0.072,0.024-0.152,0.04-0.224,0.064c-0.008,0-0.024,0.008-0.032,0.008c-0.024,0.008-0.056,0.016-0.08,0.024
	c-0.016,0.008-0.016,0.008-0.032,0.008c-0.024,0.008-0.056,0.016-0.08,0.024c-0.016,0.008-0.016,0-0.024,0.008
	c-0.04,0.008-0.072,0.016-0.112,0.032c-0.008,0-0.024,0.008-0.032,0.008c-0.024,0.008-0.056,0.016-0.08,0.024
	c-0.016,0.008-0.024,0.008-0.04,0.008c-0.024,0.008-0.048,0.016-0.072,0.016c-0.016,0.008-0.024,0.008-0.04,0.008
	c-0.024,0.008-0.048,0.016-0.072,0.024c-0.016,0.008-0.024,0.008-0.04,0.008c-0.032,0.008-0.072,0.016-0.104,0.032
	c-0.016,0.008-0.024,0.008-0.04,0.008c-0.024,0.008-0.048,0.016-0.072,0.016c-0.016,0.008-0.032,0.008-0.048,0.016
	c-0.024,0.008-0.04,0.008-0.064,0.016c-0.016,0.008-0.032,0.008-0.048,0.016c-0.024,0.008-0.048,0.016-0.064,0.016
	c-0.024,0.008-0.048,0.016-0.072,0.016c-0.024,0.008-0.048,0.016-0.072,0.016c-0.016,0.008-0.032,0.008-0.048,0.016
	c-0.024,0.008-0.04,0.008-0.064,0.016c-0.016,0.008-0.04,0.008-0.056,0.016C188.496,9,188.472,9,188.456,9.008
	c-0.024,0.008-0.032,0.008-0.056,0.016c-0.024,0.008-0.04,0.008-0.064,0.016c-0.032,0.008-0.056,0.016-0.088,0.024
	c-0.016,0.008-0.04,0.008-0.056,0.016c-0.024,0.008-0.032,0.008-0.056,0.016c-0.016,0.008-0.032,0.008-0.048,0.016
	c-0.016,0.008-0.04,0.008-0.056,0.016c-0.016,0.008-0.032,0.008-0.048,0.016c-0.016,0.008-0.04,0.008-0.056,0.016
	c-0.024,0.008-0.048,0.016-0.072,0.024c-0.032,0.008-0.048,0.016-0.08,0.024c-0.016,0.008-0.032,0.008-0.048,0.016
	c-0.024,0.008-0.032,0.008-0.056,0.016c-0.016,0.008-0.032,0.008-0.048,0.016c-0.024,0.008-0.032,0.008-0.056,0.016
	c-0.016,0.008-0.032,0.008-0.048,0.016c-0.032,0.008-0.072,0.016-0.104,0.032c-0.016,0.008-0.032,0.008-0.048,0.016
	c-0.024,0.008-0.04,0.008-0.064,0.016c-0.016,0.008-0.032,0.008-0.048,0.016c-0.016,0.008-0.048,0.016-0.064,0.016
	c-0.016,0.008-0.032,0.008-0.048,0.016c-0.024,0.008-0.04,0.008-0.064,0.016c-0.016,0.008-0.032,0.008-0.048,0.016
	c-0.04,0.008-0.08,0.024-0.12,0.032c-0.016,0-0.024,0.008-0.04,0.008c-0.024,0.008-0.04,0.008-0.064,0.016
	c-0.016,0.008-0.032,0.008-0.04,0.016c-0.016,0.008-0.048,0.016-0.064,0.016c-0.016,0.008-0.032,0.008-0.048,0.016
	c-0.024,0.008-0.04,0.008-0.064,0.016c-0.016,0.008-0.032,0.008-0.048,0.016c-0.032,0.008-0.072,0.024-0.104,0.032
	c-0.016,0.008-0.032,0.008-0.048,0.016c-0.032-0.032-0.048-0.024-0.072-0.016c-0.016,0.008-0.032,0.008-0.048,0.016
	c-0.016,0.008-0.04,0.008-0.056,0.016c-0.016,0.008-0.032,0.008-0.048,0.016c-0.024,0.008-0.032,0.008-0.056,0.016
	c-0.032,0.008-0.064,0.016-0.096,0.024c-0.016,0.008-0.04,0.008-0.056,0.016c-0.016,0.008-0.032,0.008-0.056,0.016
	c-0.016,0.008-0.04,0.008-0.056,0.016c-0.016,0.008-0.032,0.008-0.048,0.016c-0.024,0.008-0.032,0.008-0.056,0.016
	c-0.016,0.008-0.032,0.008-0.056,0.016c-0.024,0.008-0.064,0.016-0.088,0.024s-0.048,0.016-0.072,0.016
	c-0.024,0.008-0.032,0.008-0.056,0.016c-0.016,0.008-0.032,0.008-0.048,0.016c-0.016,0.008-0.048,0.016-0.064,0.016
	c-0.016,0.008-0.032,0.008-0.048,0.016c-0.024,0.008-0.04,0.008-0.064,0.016c-0.016,0.008-0.032,0.008-0.048,0.016
	c-0.032,0.008-0.064,0.016-0.096,0.032c-0.016,0.008-0.04,0.008-0.056,0.016c-0.024,0.008-0.04,0.008-0.064,0.016
	c-0.016,0.008-0.032,0.008-0.048,0.016c-0.016,0.008-0.048,0.016-0.064,0.016c-0.016,0.008-0.032,0.008-0.048,0.016
	c-0.024,0.008-0.032,0.008-0.056,0.016c-0.016,0.008-0.032,0.008-0.056,0.016c-0.032,0.008-0.072,0.024-0.104,0.032
	c-0.016,0.008-0.032,0.008-0.048,0.016c-0.024,0.008-0.032,0.008-0.056,0.016c-0.016,0.008-0.032,0.008-0.048,0.016
	c-0.016,0.008-0.04,0.008-0.056,0.016c-0.016,0.008-0.04,0.008-0.056,0.016c-0.016,0.008-0.032,0.008-0.048,0.016
	c-0.032,0.008-0.064,0.016-0.096,0.032c-0.024,0.008-0.032,0.008-0.056,0.016c-0.016,0.008-0.032,0.008-0.048,0.016
	c-0.016,0.008-0.04,0.016-0.056,0.016s-0.032,0.008-0.048,0.016c-0.024,0.008-0.04,0.008-0.064,0.016
	c-0.016,0.008-0.032,0.008-0.048,0.016c-0.024,0.008-0.048,0.016-0.072,0.024s-0.048,0.016-0.08,0.024
	c-0.016,0.008-0.032,0.008-0.048,0.016c-0.016,0.008-0.04,0.008-0.056,0.016c-0.016,0.008-0.04,0.008-0.056,0.016
	c-0.016,0.008-0.04,0.008-0.056,0.016c-0.024,0.008-0.032,0.008-0.056,0.016c-0.024,0.008-0.048,0.016-0.072,0.024
	c-0.016,0.008-0.048,0.016-0.064,0.016c-0.016-0.016-0.04-0.008-0.064-0.008c-0.016,0.008-0.032,0.008-0.048,0.016
	c-0.016,0.008-0.04,0.008-0.056,0.016c-0.016,0.008-0.032,0.008-0.048,0.016c-0.024,0.008-0.04,0.016-0.064,0.016
	c-0.016,0.008-0.032,0.008-0.048,0.016c-0.032,0.008-0.064,0.024-0.104,0.032c-0.016,0.008-0.016,0.008-0.032,0.008
	c-0.024,0.008-0.048,0.016-0.072,0.024c-0.016,0.008-0.032,0.008-0.048,0.016c-0.024,0.008-0.04,0.016-0.064,0.016
	c-0.016,0.008-0.032,0.008-0.048,0.016c-0.024,0.008-0.04,0.016-0.064,0.016c-0.016,0.008-0.032,0.008-0.04,0.016
	c-0.032,0.008-0.064,0.024-0.104,0.032c-0.016,0.008-0.032,0.008-0.048,0.016c-0.024,0.008-0.04,0.016-0.064,0.016
	c-0.016,0.008-0.04,0.008-0.056,0.016c-0.016,0.008-0.04,0.008-0.056,0.016c-0.016,0.008-0.032,0.008-0.048,0.016
	c-0.024,0.008-0.04,0.016-0.064,0.016c-0.024,0.008-0.048,0.016-0.072,0.024s-0.048,0.016-0.072,0.024
	c-0.016,0.008-0.032,0.008-0.048,0.016c-0.024,0.008-0.04,0.016-0.064,0.016c-0.016,0.008-0.032,0.008-0.048,0.016
	c-0.024,0.008-0.04,0.016-0.064,0.016c-0.016,0.008-0.032,0.008-0.048,0.016c-0.024,0.008-0.048,0.016-0.072,0.024
	s-0.056,0.016-0.08,0.024s-0.04,0.016-0.064,0.016c-0.024,0.008-0.032,0.008-0.056,0.016c-0.016,0.008-0.04,0.008-0.056,0.016
	c-0.016,0.008-0.04,0.008-0.056,0.016c-0.016,0.008-0.032,0.008-0.056,0.016c-0.016,0.008-0.04,0.008-0.056,0.016
	c-0.016,0.008-0.032,0.008-0.04,0.016c-0.04,0.008-0.072,0.024-0.112,0.032c-0.016,0.008-0.032,0.008-0.048,0.016
	c-0.024,0.008-0.032,0.008-0.056,0.016c-0.016,0.008-0.032,0.008-0.048,0.016c-0.024,0.008-0.04,0.008-0.064,0.016
	c-0.016,0.008-0.032,0.008-0.048,0.016c-0.048,0.016-0.08,0.024-0.128,0.04c-0.008,0-0.016,0.008-0.032,0.008
	c-0.024,0.008-0.04,0.016-0.064,0.016c-0.016,0.008-0.032,0.008-0.04,0.016c-0.016,0.008-0.048,0.016-0.064,0.016
	c-0.016,0.008-0.032,0.008-0.04,0.016c-0.024,0.008-0.04,0.016-0.064,0.024c-0.008,0-0.024,0.008-0.032,0.008
	c-0.056,0.016-0.104,0.032-0.16,0.048l0,0c-0.024,0.008-0.048,0.016-0.072,0.024c-0.008,0-0.024,0.008-0.032,0.008
	c-0.016,0.008-0.056,0.016-0.072,0.024c-0.008,0-0.024,0.008-0.032,0.008c-0.024,0.008-0.048,0.016-0.072,0.024
	c-0.008,0-0.008,0-0.016,0.008c-0.056,0.016-0.112,0.04-0.168,0.056l0,0c-0.032,0.008-0.056,0.016-0.08,0.024
	c-0.008,0-0.016,0.008-0.016,0.008c-0.032,0.008-0.048,0.016-0.08,0.024c-0.008,0-0.008,0-0.008,0
	c-0.128,0.04-0.24,0.08-0.368,0.112l0,0c-0.616,0.192-1.224,0.384-1.84,0.584l2.456,7.616c4.896-1.576,9.904-3.024,14.888-4.296
	L192.656,7.896L192.656,7.896z M162.216,17.72c-4.976,1.96-9.872,4.072-14.688,6.328l3.392,7.248
	c4.656-2.184,9.448-4.248,14.232-6.128L162.216,17.72L162.216,17.72z M133.264,31.288c-0.88,0.48-1.752,0.968-2.624,1.456l0,0
	c-0.112,0.064-0.216,0.12-0.328,0.184c-0.008,0.008,0.008,0,0,0c-0.032,0.016-0.072,0.04-0.104,0.056c-0.008,0,0,0-0.008,0.008
	c-0.072,0.04-0.144,0.08-0.216,0.12h-0.008c-0.032,0.016-0.064,0.04-0.096,0.056c-0.008,0-0.008,0.008-0.008,0.008
	c-0.04,0.024-0.064,0.04-0.096,0.056c-0.008,0.008-0.008,0-0.016,0.008c-0.032,0.016-0.072,0.04-0.104,0.056
	c-0.008,0-0.008,0-0.016,0.008c-0.032,0.016-0.056,0.032-0.088,0.048c-0.008,0.008-0.024,0.008-0.024,0.016
	c-0.024,0.016-0.048,0.032-0.072,0.04c-0.008,0.008-0.024,0.008-0.024,0.016c-0.032,0.016-0.064,0.04-0.096,0.056h-0.008
	c-0.032,0.016-0.064,0.032-0.096,0.056c-0.008,0.008-0.016,0.008-0.024,0.016c-0.024,0.016-0.048,0.024-0.072,0.04
	c-0.016,0.008-0.024,0.008-0.032,0.024c-0.024,0.016-0.048,0.024-0.072,0.04c-0.016,0.008-0.016,0.008-0.032,0.016
	c-0.032,0.016-0.064,0.032-0.096,0.056c-0.016,0.008-0.024,0.016-0.04,0.024c-0.024,0.008-0.04,0.024-0.064,0.032
	c-0.016,0.008-0.024,0.016-0.04,0.024c-0.016,0.008-0.04,0.024-0.056,0.032c-0.016,0.008-0.024,0.016-0.04,0.024
	c-0.032,0.016-0.064,0.032-0.088,0.056c-0.016,0.008-0.024,0.008-0.032,0.016c-0.016,0.008-0.04,0.024-0.056,0.032
	c-0.016,0.008-0.032,0.024-0.048,0.032c-0.016,0.008-0.032,0.016-0.048,0.024c-0.024,0.008-0.032,0.016-0.048,0.032
	c-0.016,0.008-0.032,0.016-0.04,0.024c-0.032,0.024-0.072,0.04-0.104,0.056c-0.008,0.008-0.024,0.016-0.032,0.016
	c-0.024,0.016-0.04,0.024-0.064,0.032c-0.008,0.008-0.024,0.016-0.032,0.016c-0.032,0.024-0.056,0.04-0.072,0.048
	c-0.008,0.008-0.024,0.016-0.032,0.016c-0.072,0.04-0.136,0.08-0.208,0.12c-0.008,0.008-0.016,0.008-0.032,0.016
	c-0.024,0.016-0.04,0.024-0.064,0.04c-0.008,0.008-0.016,0.008-0.024,0.016c-0.024,0.016-0.048,0.032-0.072,0.04c0,0,0,0-0.008,0
	c-0.056,0.032-0.096,0.056-0.152,0.088l-0.008,0.008c-0.024,0.016-0.048,0.032-0.072,0.04c-0.008,0.008-0.016,0.008-0.024,0.016
	c-0.024,0.016-0.048,0.024-0.072,0.04c-0.008,0-0.008,0.008-0.016,0.008c-0.08,0.048-0.16,0.088-0.232,0.136
	c0,0-0.008,0-0.008,0.008c-0.024,0.016-0.048,0.032-0.08,0.048l-0.008,0.008c-0.112,0.064-0.208,0.128-0.32,0.192
	c-0.008,0-0.008,0.008-0.016,0.008c-0.112,0.064-0.216,0.128-0.32,0.192l0,0c-0.112,0.064-0.224,0.128-0.328,0.192l0,0
	c-0.024,0.016-0.056,0.032-0.08,0.048l0,0c-0.36,0.216-0.72,0.424-1.08,0.64l0,0c-0.112,0.064-0.216,0.128-0.328,0.192h-0.008
	c-0.032,0.016-0.056,0.032-0.08,0.048l0,0c-0.08,0.048-0.152,0.096-0.24,0.144c-0.008,0-0.008,0.008-0.016,0.008
	c-0.024,0.016-0.04,0.024-0.072,0.04c0,0-0.016,0.008-0.024,0.016c-0.024,0.016-0.048,0.032-0.072,0.04l0,0
	c-0.056,0.032-0.104,0.064-0.16,0.096l0,0c-0.024,0.016-0.048,0.032-0.072,0.04c-0.008,0.008-0.016,0.008-0.024,0.016
	c-0.024,0.016-0.048,0.024-0.064,0.04c-0.008,0.008-0.016,0.008-0.032,0.016c-0.04,0.024-0.08,0.048-0.12,0.072
	c-0.008,0.008-0.016,0.008-0.024,0.016c-0.024,0.016-0.032,0.024-0.056,0.032c-0.016,0.008-0.024,0.016-0.04,0.024
	s-0.04,0.024-0.056,0.032c-0.016,0.008-0.032,0.016-0.048,0.032c-0.016,0.008-0.032,0.024-0.048,0.032
	c-0.024,0.016-0.048,0.032-0.072,0.04c-0.024,0.016-0.04,0.024-0.056,0.04c-0.016,0.008-0.032,0.024-0.056,0.032
	c-0.016,0.008-0.032,0.016-0.048,0.024s-0.032,0.024-0.056,0.032c-0.024,0.016-0.024,0.016-0.048,0.024
	c-0.024,0.016-0.048,0.024-0.064,0.04c-0.008,0.008-0.024,0.016-0.032,0.024c-0.032,0.016-0.056,0.032-0.088,0.056
	c-0.008,0.008-0.024,0.016-0.032,0.024c-0.024,0.016-0.048,0.032-0.072,0.04c-0.016,0.008-0.016,0.008-0.032,0.016
	c-0.024,0.016-0.056,0.032-0.08,0.048c-0.008,0.008-0.016,0.008-0.016,0.008c-0.032,0.024-0.064,0.04-0.104,0.064h-0.008
	c-0.032,0.016-0.064,0.04-0.096,0.056c-0.008,0.008-0.008,0.008-0.016,0.008c-0.032,0.016-0.064,0.04-0.096,0.056l0,0
	c-0.888,0.544-1.768,1.096-2.648,1.648l4.272,6.76c4.352-2.752,8.848-5.392,13.352-7.864L133.264,31.288L133.264,31.288z
	 M106.224,48.368c-0.016,0.008-0.016,0.016-0.032,0.024s-0.032,0.024-0.048,0.032c-0.016,0.008-0.032,0.024-0.048,0.032
	c-0.016,0.008-0.024,0.016-0.04,0.024c-0.064,0.048-0.128,0.096-0.192,0.144c-0.008,0.008-0.016,0.008-0.024,0.016
	c-0.024,0.016-0.04,0.032-0.064,0.048c-0.008,0.008-0.008,0.008-0.016,0.016c-4.168,3.024-8.24,6.176-12.208,9.44l5.08,6.184
	c3.976-3.264,8.104-6.456,12.272-9.464L106.224,48.368L106.224,48.368z M81.52,68.672c-3.904,3.632-7.696,7.392-11.36,11.264
	l5.808,5.504c3.536-3.736,7.24-7.408,11.008-10.912L81.52,68.672L81.52,68.672z M59.52,91.88c-0.968,1.16-1.928,2.328-2.88,3.512
	L56.632,95.4c-0.056,0.072-0.112,0.136-0.168,0.208c-0.008,0.008-0.008,0.016-0.016,0.016c-0.016,0.016-0.032,0.04-0.048,0.056
	c-0.008,0.008-0.016,0.016-0.016,0.024c-0.048,0.064-0.104,0.128-0.152,0.192c-0.008,0.008-0.016,0.016-0.024,0.024
	c-0.016,0.016-0.024,0.032-0.04,0.056c-0.008,0.008-0.016,0.024-0.032,0.032c-0.016,0.016-0.024,0.032-0.04,0.048
	c-0.008,0.016-0.024,0.032-0.032,0.04c-0.016,0.016-0.04,0.048-0.048,0.064c-0.016,0.024-0.032,0.04-0.048,0.064
	c-0.016,0.016-0.016,0.024-0.032,0.04c-0.016,0.016-0.024,0.032-0.04,0.048c-0.008,0.016-0.024,0.032-0.032,0.04
	c-0.016,0.016-0.024,0.032-0.04,0.048c-0.008,0.016-0.016,0.024-0.024,0.032c-0.024,0.024-0.04,0.056-0.064,0.08
	c-0.008,0.016-0.016,0.024-0.024,0.032c-0.016,0.016-0.032,0.04-0.048,0.056c-0.008,0.016-0.016,0.024-0.024,0.032
	c-0.016,0.024-0.032,0.04-0.048,0.064c-0.008,0.008-0.016,0.016-0.016,0.024c-0.024,0.032-0.048,0.056-0.072,0.088
	c-0.008,0.008,0,0-0.008,0.008c-0.024,0.024-0.04,0.056-0.064,0.08c0,0-0.016,0.016-0.016,0.024
	c-0.016,0.024-0.04,0.048-0.056,0.072C55.352,97,55.352,97,55.344,97.008c-0.048,0.064-0.096,0.128-0.152,0.184L55.184,97.2
	c-0.024,0.032-0.048,0.056-0.072,0.088l-0.008,0.008c-1.856,2.352-3.68,4.736-5.456,7.152l6.448,4.744
	c3.048-4.144,6.264-8.248,9.568-12.192L59.52,91.88L59.52,91.88z M40.568,117.648c-1.136,1.768-2.264,3.56-3.36,5.36l0,0
	c-0.016,0.032-0.032,0.048-0.048,0.08c0,0.008-0.008,0.008-0.008,0.016c-0.048,0.08-0.096,0.152-0.144,0.232l0,0
	c-0.016,0.024-0.032,0.048-0.04,0.072c-0.008,0.008-0.008,0.016-0.016,0.024c-0.016,0.024-0.032,0.048-0.04,0.072
	c0,0-0.008,0.008-0.008,0.016c-0.048,0.072-0.088,0.152-0.136,0.224c-0.008,0.008-0.008,0.016-0.016,0.024
	c-0.016,0.024-0.024,0.04-0.04,0.064c-0.008,0.008-0.008,0.016-0.016,0.024c-0.016,0.024-0.024,0.04-0.04,0.064v0
	c-0.032,0.048-0.056,0.088-0.08,0.136c-0.008,0.016-0.016,0.024-0.016,0.032c-0.016,0.024-0.024,0.04-0.04,0.056
	c-0.008,0.008-0.016,0.024-0.016,0.032c-0.016,0.024-0.024,0.04-0.04,0.064c-0.008,0.008-0.008,0.016-0.016,0.024
	c-0.032,0.048-0.048,0.088-0.08,0.136v0.008c-0.016,0.024-0.032,0.048-0.04,0.064c-0.008,0.008-0.016,0.024-0.016,0.032
	c-0.008,0.016-0.024,0.048-0.032,0.056c-0.008,0.016-0.016,0.024-0.024,0.04c-0.04,0.072-0.08,0.128-0.12,0.2
	c-0.008,0.008-0.016,0.024-0.024,0.032c-0.016,0.024-0.024,0.04-0.032,0.056c-0.008,0.016-0.016,0.024-0.024,0.04
	c-0.016,0.024-0.024,0.032-0.032,0.056c-0.008,0.016-0.016,0.024-0.024,0.04c-0.016,0.024-0.04,0.072-0.056,0.096
	c-0.008,0.016-0.016,0.024-0.024,0.04c-0.016,0.024-0.024,0.032-0.032,0.056c-0.008,0.016-0.016,0.024-0.024,0.04
	c-0.016,0.024-0.024,0.032-0.032,0.056c-0.008,0.016-0.016,0.024-0.024,0.04c-0.024,0.032-0.04,0.072-0.064,0.104
	c-0.008,0.008-0.016,0.024-0.024,0.032c-0.016,0.024-0.016,0.032-0.032,0.056c-0.008,0.016-0.016,0.032-0.024,0.04
	c-0.008,0.016-0.024,0.04-0.032,0.048c-0.008,0.016-0.016,0.032-0.024,0.04c-0.016,0.024-0.016,0.032-0.032,0.048
	c-0.016,0.024-0.032,0.056-0.048,0.08c-0.008,0.016-0.024,0.04-0.032,0.048c-0.008,0.016-0.024,0.04-0.032,0.056
	c-0.008,0.016-0.016,0.032-0.024,0.048s-0.016,0.032-0.032,0.048c-0.016,0.024-0.016,0.024-0.032,0.048
	c-0.008,0.016-0.016,0.032-0.032,0.048c-0.016,0.024-0.04,0.064-0.056,0.088c-0.008,0.016-0.016,0.032-0.024,0.048
	c-0.016,0.024-0.016,0.032-0.032,0.048c-0.008,0.016-0.016,0.032-0.024,0.04c-0.008,0.016-0.024,0.04-0.032,0.056
	c-0.008,0.016-0.016,0.032-0.024,0.048c-0.016,0.024-0.024,0.048-0.04,0.064c-0.016,0.024-0.024,0.048-0.04,0.072
	c-0.016,0.024-0.016,0.032-0.032,0.048c-0.008,0.016-0.016,0.032-0.024,0.04c-0.008,0.016-0.024,0.04-0.032,0.056
	c-0.008,0.016-0.016,0.024-0.024,0.04c-0.016,0.024-0.024,0.032-0.032,0.056c-0.008,0.008-0.016,0.024-0.016,0.032
	c-0.024,0.04-0.04,0.064-0.064,0.112c-0.008,0.008-0.016,0.024-0.024,0.032c-0.016,0.024-0.024,0.04-0.032,0.056
	c-0.008,0.016-0.016,0.024-0.024,0.04c-0.016,0.024-0.024,0.032-0.032,0.056c-0.008,0.016-0.016,0.032-0.024,0.04
	c-0.016,0.024-0.032,0.056-0.048,0.088c-0.008,0.016-0.016,0.032-0.032,0.048c-0.016,0.024-0.016,0.032-0.032,0.056
	c-0.008,0.016-0.016,0.024-0.024,0.04s-0.024,0.04-0.032,0.056c-0.008,0.016-0.016,0.024-0.024,0.04
	c-0.008,0.024-0.024,0.032-0.032,0.056c-0.008,0.008-0.008,0.016-0.016,0.024c-0.024,0.04-0.048,0.08-0.072,0.12
	c-0.008,0.008-0.016,0.024-0.024,0.032c-0.016,0.024-0.024,0.04-0.032,0.056c-0.008,0.008-0.016,0.024-0.016,0.032
	c-0.008,0.024-0.024,0.04-0.032,0.064c-0.008,0.008-0.008,0.024-0.016,0.032c-0.024,0.04-0.04,0.072-0.064,0.12
	c-0.008,0.008-0.008,0.016-0.016,0.032c-0.008,0.024-0.024,0.04-0.032,0.064c-0.008,0.008-0.016,0.024-0.016,0.032
	c-0.008,0.024-0.024,0.04-0.032,0.064c-0.008,0.008-0.016,0.024-0.016,0.032c-0.032,0.048-0.048,0.088-0.08,0.136
	c0,0,0,0.008-0.008,0.008c-0.008,0.024-0.024,0.04-0.032,0.056c-0.008,0.016-0.016,0.024-0.024,0.04
	c-0.008,0.016-0.024,0.04-0.032,0.056c-0.008,0.016-0.016,0.024-0.024,0.04c-0.016,0.024-0.024,0.04-0.032,0.056
	c0,0-0.008,0.008-0.008,0.016c-0.024,0.04-0.056,0.096-0.08,0.136c-0.008,0.008-0.008,0.016-0.016,0.024
	c-0.008,0.024-0.024,0.04-0.04,0.064c-0.008,0.008-0.008,0.024-0.016,0.032c-0.008,0.024-0.024,0.048-0.04,0.064
	c0,0-0.008,0.008-0.008,0.016c-0.04,0.072-0.088,0.152-0.128,0.224c-0.008,0.008-0.008,0.016-0.016,0.024
	c-0.016,0.024-0.024,0.04-0.04,0.072c0,0.008-0.008,0.008-0.008,0.016c-0.048,0.08-0.088,0.16-0.136,0.24l0,0
	c-0.016,0.032-0.032,0.056-0.048,0.08l0,0c-0.064,0.112-0.128,0.216-0.192,0.336V130c-0.256,0.456-0.512,0.904-0.76,1.36
	l6.984,3.904c2.504-4.488,5.192-8.96,7.976-13.288L40.568,117.648L40.568,117.648z M24.976,145.568
	c-0.216,0.448-0.432,0.896-0.64,1.352l0,0c-0.032,0.072-0.072,0.144-0.104,0.224c0,0.008,0,0.008-0.008,0.016
	c-0.016,0.032-0.024,0.056-0.04,0.088c0,0.008-0.008,0.024-0.016,0.032c-0.016,0.024-0.024,0.048-0.04,0.08
	c-0.008,0.016-0.008,0.016-0.016,0.032c-0.016,0.032-0.032,0.064-0.048,0.096c-0.008,0.016-0.008,0.016-0.016,0.032
	c-0.008,0.024-0.024,0.048-0.032,0.072c-0.008,0.016-0.016,0.032-0.024,0.04c0.008,0.008,0,0.024-0.016,0.048
	c-0.008,0.016-0.016,0.032-0.024,0.048c-0.008,0.024-0.016,0.04-0.032,0.064c-0.016,0.032-0.024,0.056-0.04,0.088
	c-0.008,0.016-0.016,0.032-0.024,0.04c-0.008,0.024-0.016,0.04-0.032,0.064c-0.008,0.008-0.008,0.024-0.016,0.032
	c-0.008,0.024-0.024,0.048-0.032,0.064c0,0.008-0.008,0.016-0.008,0.024c-0.048,0.112-0.104,0.224-0.16,0.336l0,0
	c-1.784,3.848-3.472,7.744-5.072,11.696c0,0.008-0.008,0.008-0.008,0.016c-0.008,0.024-0.016,0.032-0.024,0.056l7.44,2.992
	c1.928-4.768,4.032-9.536,6.248-14.176L24.976,145.568L24.976,145.568z M13.008,175.216c-0.848,2.544-1.648,5.096-2.416,7.672v0.008
	c-0.04,0.128-0.072,0.24-0.112,0.368v0.008c-0.008,0.032-0.016,0.064-0.024,0.096l0,0c-0.024,0.096-0.056,0.184-0.08,0.272v0.008
	c-0.008,0.032-0.016,0.056-0.024,0.088c0,0.008,0,0.008-0.008,0.016c-0.008,0.032-0.016,0.056-0.024,0.088v0.008
	c-0.024,0.096-0.048,0.176-0.08,0.264v0.008c-0.008,0.032-0.016,0.048-0.024,0.08c0,0.008-0.008,0.016-0.008,0.024
	c-0.008,0.024-0.016,0.056-0.024,0.08c0,0.008,0,0.008-0.008,0.016c-0.024,0.08-0.048,0.176-0.072,0.248
	c0,0.008-0.008,0.024-0.008,0.032c-0.016,0.032-0.016,0.04-0.024,0.072c0,0.008-0.008,0.016-0.008,0.032
	c-0.008,0.024-0.016,0.048-0.024,0.072c0,0.008-0.008,0.016-0.008,0.024c-0.016,0.048-0.024,0.096-0.04,0.144
	c0,0.008-0.008,0.024-0.008,0.032c-0.008,0.024-0.008,0.04-0.016,0.064c-0.008,0.016-0.008,0.032-0.016,0.04
	c-0.008,0.016-0.016,0.048-0.016,0.056c-0.008,0.016-0.008,0.032-0.016,0.048c-0.008,0.024-0.008,0.032-0.016,0.056
	c-0.008,0.024-0.016,0.048-0.024,0.08c-0.008,0.024-0.016,0.048-0.024,0.072c-0.008,0.016-0.008,0.04-0.016,0.056
	c-0.008,0.024-0.008,0.032-0.016,0.056c-0.008,0.016-0.008,0.04-0.016,0.056c-0.008,0.016-0.008,0.032-0.016,0.048
	c-0.008,0.024-0.008,0.04-0.016,0.064c-0.008,0.016-0.008,0.032-0.016,0.048c-0.008,0.032-0.016,0.064-0.032,0.104
	c-0.008,0.016-0.008,0.024-0.008,0.04c-0.008,0.024-0.016,0.048-0.024,0.072c-0.008,0.016-0.008,0.024-0.008,0.04
	c-0.008,0.024-0.016,0.048-0.024,0.072c0,0.008-0.008,0.032-0.008,0.04c-0.008,0.032-0.016,0.056-0.024,0.088
	c0,0.008-0.008,0.016-0.008,0.024c0,0.04-0.016,0.072-0.024,0.112c0,0.008-0.008,0.024-0.008,0.032
	c-0.008,0.024-0.016,0.056-0.024,0.08c-0.008,0.016-0.008,0.024-0.008,0.04c-0.008,0.024-0.016,0.056-0.024,0.08
	c0,0.008-0.008,0.024-0.008,0.032c-0.008,0.04-0.024,0.072-0.032,0.112v0.008c-0.008,0.032-0.016,0.072-0.032,0.104
	c0,0.008-0.008,0.016-0.008,0.024c-0.008,0.032-0.016,0.056-0.024,0.088c0,0.008-0.008,0.016-0.008,0.024
	c-0.008,0.032-0.016,0.072-0.032,0.104v0.008c-0.008,0.04-0.024,0.08-0.032,0.12c0,0.008,0-0.008,0,0
	c-0.008,0.032-0.024,0.072-0.032,0.112c0,0.008,0,0.008-0.008,0.016c-0.008,0.032-0.016,0.072-0.032,0.104c0,0.008,0,0,0,0.008
	c-0.032,0.12-0.064,0.24-0.096,0.36l0,0c-0.256,0.928-0.504,1.856-0.752,2.784l7.736,2.04c1.312-4.976,2.8-9.968,4.416-14.848
	L13.008,175.216L13.008,175.216z M4.856,206.144c-1.024,5.208-1.896,10.464-2.608,15.784l7.928,1.056
	c0.68-5.104,1.528-10.248,2.52-15.288L4.856,206.144L4.856,206.144z M0.632,237.84c-0.296,4.2-0.488,8.432-0.576,12.68l0,0
	c0,0.024,0,0.064,0,0.088c0,0.008,0,0.016,0,0.024c0,0.032,0,0.048,0,0.08c0,0.008,0,0.016,0,0.024c0,0.024,0,0.056,0,0.08
	c0,0.008,0,0.016,0,0.016c0,0.04,0,0.104,0,0.144c0,0.016,0,0.032,0,0.048s0,0.04,0,0.056s0,0.04,0,0.056s0,0.04,0,0.056
	c0,0.024,0,0.04,0,0.064c0,0.016,0,0.032,0,0.048c0,0.024,0,0.056,0,0.08c0,0.016,0,0.016,0,0.032c0,0.04,0,0.08,0,0.12
	c0,0.008,0,0,0,0.008c0,0.04,0,0.072,0,0.112c0,0.008,0,0.016,0,0.024c0,0.032,0,0.064,0,0.096v0.024c0,0.04,0,0.072,0,0.112l0,0
	c-0.008,0.624-0.016,1.256-0.024,1.888l8,0.064c0.04-5.152,0.248-10.368,0.608-15.488L0.632,237.84L0.632,237.84z M8.352,269.4
	l-7.992,0.424c0.088,1.664,0.192,3.304,0.312,4.952v0.008c0,0.032,0.008,0.064,0.008,0.096v0.016
	c0.008,0.128,0.016,0.256,0.032,0.384c0,0.008,0,0.016,0,0.024c0,0.032,0,0.048,0.008,0.08c0,0.008,0,0.016,0,0.024
	c0,0.024,0.008,0.056,0.008,0.08c0,0.008,0,0.008,0,0.016c0.008,0.088,0.016,0.192,0.024,0.272c0,0.008,0,0.016,0,0.024
	c0,0.024,0.008,0.056,0.008,0.08c0,0.008,0,0.024,0,0.032c0,0.024,0,0.048,0.008,0.072c0,0.008,0,0.024,0,0.032
	c0.008,0.088,0.016,0.176,0.024,0.264c0,0.008,0,0.016,0,0.024c0,0.024,0,0.048,0.008,0.072c0,0.016,0,0.024,0,0.04
	c0,0.016,0.008,0.056,0.008,0.072s0,0.024,0,0.04c0,0.024,0,0.048,0.008,0.072c0,0.008,0,0.016,0,0.024
	c0.008,0.056,0.008,0.12,0.016,0.184l0,0c0,0.024,0.008,0.048,0.008,0.08c0,0.016,0,0.024,0,0.04c0,0.024,0,0.048,0.008,0.072
	c0,0.016,0,0.024,0,0.04c0,0.024,0,0.048,0.008,0.072c0,0.008,0,0.024,0,0.032c0.008,0.088,0.016,0.168,0.024,0.256
	c0,0.008,0,0.024,0,0.032c0,0.024,0,0.048,0.008,0.072c0,0.016,0,0.024,0,0.04c0,0.024,0,0.048,0.008,0.072c0,0.016,0,0.024,0,0.04
	c0,0.024,0.008,0.048,0.008,0.072l0,0c0.008,0.064,0.008,0.12,0.016,0.192c0,0.008,0,0.008,0,0.008c0,0.032,0.008,0.056,0.008,0.08
	c0,0.008,0,0.024,0,0.032c0,0.016,0.008,0.056,0.008,0.072s0,0.024,0,0.04c0,0.024,0.008,0.048,0.008,0.072c0,0.008,0,0.016,0,0.016
	c0.008,0.088,0.016,0.184,0.024,0.264c0,0.008,0,0.024,0,0.032c0,0.024,0.008,0.056,0.008,0.08c0,0.008,0,0.016,0,0.032
	c0,0.024,0.008,0.056,0.008,0.08c0,0.008,0,0.016,0,0.024c0.008,0.096,0.016,0.184,0.024,0.28v0.016
	c0,0.024,0.008,0.064,0.008,0.088c0,0.008,0,0.016,0,0.024c0,0.032,0.008,0.048,0.008,0.088c0,0,0,0.008,0,0.016
	c0.008,0.136,0.024,0.248,0.032,0.384c0,0,0,0.008,0,0.016c0,0.032,0.008,0.056,0.008,0.088c0,0.008,0,0.008,0,0.016
	c0.016,0.168,0.032,0.328,0.048,0.496l0,0c0.176,1.848,0.368,3.68,0.576,5.512l7.944-0.92C9.072,279.744,8.632,274.544,8.352,269.4
	L8.352,269.4z M11.92,300.176l-7.872,1.416c0.08,0.432,0.152,0.864,0.24,1.296v0.008c0.024,0.12,0.048,0.248,0.072,0.368
	c0,0.008,0,0.016,0.008,0.024c0.008,0.024,0.008,0.048,0.016,0.072c0,0.016,0.008,0.024,0.008,0.04
	c0.008,0.024,0.008,0.04,0.016,0.064c0,0.016,0.008,0.032,0.008,0.048c0.008,0.024,0.008,0.048,0.016,0.072
	c0.008,0.032,0.008,0.064,0.016,0.096c0,0.016,0.008,0.024,0.008,0.04c0.008,0.024,0.008,0.048,0.016,0.072
	c0,0.016,0.008,0.024,0.008,0.04c0.008,0.024,0.008,0.048,0.016,0.08c0,0.008,0.008,0.024,0.008,0.032
	c0.008,0.032,0.016,0.064,0.016,0.104c0,0.008,0,0,0,0.008c0.008,0.04,0.016,0.08,0.024,0.12l0,0
	c0.008,0.04,0.016,0.072,0.024,0.112c0,0.008,0,0.008,0,0.016c0.008,0.04,0.016,0.072,0.024,0.112l0,0
	c0.824,4.312,1.76,8.584,2.8,12.808l7.768-1.904C13.912,310.344,12.832,305.24,11.92,300.176L11.92,300.176z M19.304,330.256
	l-7.632,2.392c1.6,5.104,3.36,10.144,5.264,15.104l7.472-2.872C22.56,340.088,20.848,335.168,19.304,330.256L19.304,330.256z
	 M30.408,359.168l-7.272,3.328c0.264,0.568,0.52,1.136,0.792,1.704l0,0c0.016,0.032,0.032,0.072,0.048,0.104
	c0,0.008,0,0.008,0.008,0.016c0.032,0.072,0.072,0.144,0.104,0.216l0.008,0.008c0.016,0.032,0.032,0.064,0.04,0.096
	c0.008,0.016,0.008,0.016,0.016,0.024c0.016,0.024,0.024,0.056,0.04,0.08c0,0.008,0.008,0.016,0.016,0.024
	c0.016,0.032,0.032,0.072,0.048,0.104c0,0.008,0,0,0.008,0.008c0.016,0.032,0.032,0.064,0.04,0.088c0,0.008,0.016,0.032,0.016,0.04
	c0.008,0.024,0.024,0.04,0.032,0.064c0.008,0.016,0.016,0.024,0.016,0.04c0.008,0.024,0.024,0.04,0.032,0.064
	c0.008,0.016,0.016,0.032,0.024,0.04c0.016,0.032,0.024,0.056,0.04,0.088c0.008,0.016,0.016,0.032,0.024,0.048
	s0.016,0.04,0.024,0.056s0.016,0.04,0.024,0.048c0.008,0.016,0.016,0.032,0.024,0.048c0.008,0.024,0.016,0.032,0.024,0.048
	s0.016,0.032,0.024,0.056c0.016,0.04,0.024,0.056,0.048,0.096c0.008,0.016,0.016,0.024,0.024,0.04
	c0.008,0.024,0.016,0.04,0.032,0.056c0.008,0.016,0.008,0.024,0.016,0.04c0.008,0.024,0.024,0.04,0.032,0.064
	c0,0.008,0.008,0.016,0.008,0.024c0.04,0.08,0.072,0.152,0.112,0.232c0,0.008,0.008,0.008,0.008,0.008
	c0.016,0.032,0.024,0.048,0.04,0.08c0,0.008,0.008,0.008,0.008,0.016c0.056,0.112,0.112,0.224,0.16,0.336c0,0,0,0,0,0.008
	c1.656,3.44,3.376,6.84,5.176,10.192l7.048-3.784C34.872,368.512,32.552,363.848,30.408,359.168L30.408,359.168z M45.048,386.472
	l-6.8,4.216c2.816,4.536,5.768,8.984,8.848,13.328l6.52-4.632C50.648,395.184,47.76,390.84,45.048,386.472L45.048,386.472z
	 M62.984,411.736l-6.224,5.024c3.352,4.152,6.84,8.2,10.44,12.128l5.896-5.408C69.616,419.688,66.216,415.736,62.984,411.736
	L62.984,411.736z M83.92,434.584l-5.552,5.76c0.496,0.48,0.992,0.952,1.496,1.432l0,0c0.024,0.024,0.04,0.04,0.064,0.064
	l0.008,0.008c0.064,0.064,0.128,0.12,0.192,0.184c0.008,0.008,0.008,0.008,0.016,0.016c0.024,0.024,0.032,0.032,0.056,0.056
	c0.008,0.008,0.016,0.016,0.024,0.024c0.056,0.056,0.112,0.104,0.168,0.16c0.008,0.008,0.024,0.016,0.032,0.032
	c0.016,0.016,0.024,0.024,0.048,0.04c0.008,0.008,0.024,0.024,0.032,0.032c0.016,0.016,0.032,0.024,0.048,0.04
	c0.016,0.016,0.024,0.024,0.04,0.04c0.024,0.024,0.04,0.04,0.064,0.064c0.016,0.016,0.032,0.032,0.048,0.04
	c0.016,0.016,0.024,0.024,0.04,0.04c0.016,0.016,0.032,0.024,0.04,0.04c0.008,0.008,0.024,0.024,0.04,0.04
	c0.016,0.016,0.032,0.024,0.04,0.04c0.008,0.008,0.032,0.032,0.04,0.04c0.024,0.024,0.048,0.04,0.072,0.064
	c0.008,0.008,0.024,0.024,0.032,0.032c0.016,0.016,0.032,0.032,0.048,0.048c0.008,0.008,0.024,0.024,0.04,0.032
	c0.016,0.016,0.032,0.032,0.048,0.048c0.008,0.008,0.024,0.024,0.032,0.032c0.024,0.024,0.048,0.048,0.072,0.072
	c0.008,0.008,0.024,0.016,0.032,0.032c0.016,0.016,0.032,0.032,0.048,0.048c0.008,0.008,0.024,0.024,0.032,0.032
	c0.016,0.016,0.032,0.032,0.048,0.048c0.008,0.008,0.024,0.024,0.032,0.032c0.024,0.024,0.056,0.048,0.08,0.072l0,0
	c0.024,0.024,0.056,0.048,0.08,0.072c0.008,0.008,0.024,0.016,0.024,0.024c0.016,0.016,0.04,0.032,0.056,0.056
	c0.008,0.008,0.024,0.024,0.032,0.024c0.024,0.016,0.04,0.04,0.064,0.056c0.008,0.008,0.016,0.016,0.024,0.016
	c0.024,0.024,0.056,0.048,0.08,0.072c0.008,0.008,0.016,0.008,0.024,0.024c0.016,0.016,0.04,0.032,0.056,0.056
	c0.008,0.008,0.024,0.016,0.032,0.032c0.016,0.016,0.04,0.04,0.056,0.056c0.008,0.008,0.008,0.008,0.024,0.024
	c0.024,0.024,0.056,0.048,0.08,0.08c0.008,0.008,0.016,0.016,0.016,0.016c0.024,0.016,0.04,0.04,0.064,0.056
	c0.008,0.008,0.016,0.016,0.032,0.024c0.016,0.016,0.04,0.032,0.056,0.048c0.008,0.008,0.024,0.024,0.032,0.024
	c0.024,0.024,0.056,0.048,0.08,0.072c0,0,0,0,0.008,0.008c0.024,0.024,0.048,0.048,0.072,0.064c0.008,0.008,0.024,0.024,0.032,0.032
	c0.016,0.016,0.032,0.032,0.056,0.048c0.008,0.008,0.024,0.016,0.032,0.032c0.016,0.016,0.04,0.032,0.056,0.048
	c0.008,0.008,0.016,0.016,0.024,0.024c0.024,0.024,0.048,0.048,0.08,0.072c0.008,0.008,0.024,0.024,0.032,0.032
	c0.016,0.016,0.032,0.032,0.048,0.04c0.008,0.008,0.024,0.024,0.04,0.032c0.016,0.016,0.032,0.032,0.048,0.048
	c0.008,0.008,0.024,0.016,0.032,0.032c0.024,0.024,0.048,0.048,0.072,0.072c0.008,0.008,0.024,0.024,0.04,0.032
	c0.016,0.016,0.032,0.024,0.048,0.04c0.008,0.008,0.024,0.024,0.04,0.032c0.016,0.016,0.032,0.032,0.048,0.04
	s0.024,0.024,0.04,0.032c0.024,0.016,0.04,0.04,0.056,0.056s0.04,0.032,0.056,0.048s0.032,0.024,0.04,0.04
	c0.016,0.016,0.024,0.024,0.048,0.04c0.016,0.008,0.024,0.024,0.04,0.032c0.008,0.008,0.032,0.024,0.04,0.04
	c0.016,0.016,0.032,0.024,0.04,0.04c0.024,0.024,0.048,0.04,0.072,0.064c0.016,0.016,0.024,0.024,0.04,0.04
	c0.016,0.016,0.024,0.024,0.048,0.04c0.016,0.008,0.024,0.024,0.04,0.032c0.008,0.008,0.032,0.032,0.048,0.04
	s0.024,0.024,0.04,0.032c0.056,0.056,0.112,0.104,0.168,0.152c0.008,0.008,0.016,0.016,0.024,0.024
	c0.024,0.024,0.032,0.032,0.056,0.048c0.008,0.008,0.016,0.016,0.024,0.016c0.064,0.056,0.136,0.12,0.2,0.176l0,0
	c0.024,0.024,0.04,0.032,0.064,0.056c0.008,0.008,0.008,0.008,0.016,0.016c0.096,0.088,0.176,0.16,0.272,0.248c0,0,0,0,0.008,0.008
	c1.808,1.624,3.64,3.232,5.496,4.808l5.184-6.096C91.488,441.656,87.624,438.152,83.92,434.584L83.92,434.584z M107.52,454.656
	l-4.792,6.408c1.864,1.4,3.752,2.768,5.656,4.112c0.008,0.008,0,0,0.008,0c0.032,0.024,0.064,0.048,0.096,0.072l0,0
	c0.064,0.048,0.136,0.096,0.2,0.144h0.008c0.032,0.024,0.064,0.04,0.088,0.064c0.008,0.008,0.008,0.008,0.016,0.008
	c0.032,0.024,0.064,0.048,0.096,0.064l0,0c0.032,0.024,0.064,0.048,0.104,0.072l0.008,0.008c0.032,0.024,0.056,0.04,0.088,0.064
	c0.008,0.008,0.016,0.008,0.016,0.016c0.024,0.016,0.048,0.032,0.08,0.056c0.008,0.008,0.016,0.008,0.024,0.016
	c0.032,0.024,0.064,0.048,0.096,0.064l0,0c0.032,0.024,0.064,0.04,0.088,0.064c0.008,0.008,0.024,0.016,0.032,0.016
	c0.024,0.016,0.048,0.032,0.064,0.048c0.008,0.008,0.024,0.016,0.032,0.024c0.024,0.016,0.048,0.032,0.08,0.056
	c0.008,0.008,0.008,0.008,0.016,0.008c0.032,0.024,0.064,0.04,0.096,0.064c0.008,0.008,0.016,0.016,0.024,0.016
	c0.024,0.016,0.048,0.032,0.072,0.048c0.016,0.008,0.016,0.016,0.032,0.024c0.024,0.016,0.048,0.032,0.072,0.048
	c0.016,0.008,0.016,0.008,0.024,0.016c0.032,0.024,0.064,0.04,0.088,0.064c0.016,0.008,0.016,0.008,0.024,0.016
	c0.024,0.016,0.048,0.032,0.064,0.048c0.016,0.008,0.016,0.016,0.032,0.024c0.024,0.016,0.048,0.032,0.064,0.048
	c0.008,0.008,0.024,0.016,0.032,0.016c0.064,0.04,0.12,0.088,0.184,0.128c0.008,0.008,0.024,0.016,0.032,0.024
	c0.024,0.016,0.048,0.032,0.064,0.048c0.008,0.008,0.024,0.016,0.024,0.016c0.024,0.016,0.056,0.04,0.08,0.056
	c0.008,0.008,0.008,0.008,0.016,0.008c0.032,0.024,0.064,0.04,0.096,0.064c0.016,0.008,0.016,0.008,0.032,0.016
	c0.024,0.016,0.04,0.032,0.064,0.04c0.016,0.008,0.024,0.016,0.04,0.024c0.024,0.016,0.048,0.032,0.064,0.048
	c0.016,0.008,0.008,0.008,0.024,0.016c0.032,0.024,0.064,0.04,0.096,0.064c0.008,0.008,0.016,0.016,0.024,0.016
	c0.024,0.016,0.048,0.032,0.072,0.048c0.008,0.008,0.024,0.016,0.032,0.016c0.024,0.016,0.048,0.032,0.072,0.048
	c0.008,0.008,0.016,0.016,0.024,0.016c0.064,0.04,0.128,0.088,0.192,0.128c0.008,0.008,0.016,0.008,0.024,0.016
	c0.024,0.016,0.056,0.04,0.08,0.056c0.008,0.008,0.008,0.008,0.016,0.016c0.032,0.024,0.064,0.04,0.096,0.064l0,0
	c0.032,0.024,0.064,0.048,0.104,0.072h0.008c0.032,0.024,0.064,0.04,0.096,0.064l0.008,0.008c1.304,0.888,2.624,1.768,3.944,2.64
	l4.384-6.688C115.912,460.736,111.64,457.744,107.52,454.656L107.52,454.656z M133.432,471.648l-3.96,6.952
	c2.832,1.616,5.696,3.176,8.6,4.68c0.008,0,0.016,0.008,0.024,0.008c0.024,0.008,0.056,0.024,0.072,0.04c0,0,0,0,0.008,0
	c0.08,0.04,0.16,0.08,0.232,0.12c0.008,0.008,0.024,0.008,0.032,0.016c0.024,0.008,0.04,0.024,0.064,0.032
	c0.016,0.008,0.024,0.016,0.04,0.016c0.024,0.008,0.04,0.016,0.056,0.032c0.024,0.008,0.048,0.024,0.072,0.04
	c0.024,0.008,0.048,0.024,0.064,0.032c0.016,0.008,0.032,0.016,0.056,0.024c0.016,0.008,0.032,0.016,0.048,0.024
	s0.04,0.016,0.056,0.032c0.016,0.008,0.032,0.016,0.04,0.024c0.024,0.016,0.056,0.032,0.08,0.04
	c0.016,0.008,0.016,0.008,0.032,0.016c0.024,0.016,0.056,0.024,0.08,0.04c0.008,0,0.032,0.016,0.04,0.016
	c0.024,0.008,0.048,0.024,0.064,0.032c0.016,0.008,0.016,0.008,0.032,0.016c0.032,0.016,0.056,0.032,0.088,0.048
	c0.008,0,0.008,0,0.016,0.008c0.032,0.016,0.072,0.04,0.104,0.056l0,0c0.032,0.016,0.064,0.032,0.096,0.048
	c0.008,0,0.016,0.008,0.024,0.008c0.032,0.016,0.064,0.032,0.096,0.048l0.008,0.008c0.072,0.04,0.144,0.072,0.216,0.112
	c0.008,0,0,0,0.008,0.008c0.032,0.016,0.064,0.032,0.104,0.048c0.008,0,0,0,0.008,0.008c1.192,0.608,2.384,1.2,3.584,1.784
	l3.52-7.184C142.512,476.632,137.904,474.192,133.432,471.648L133.432,471.648z M161.256,485.264l-3.056,7.392
	c0.008,0,0.016,0.008,0.024,0.008c0.024,0.008,0.048,0.016,0.072,0.032c0.008,0,0.024,0.008,0.032,0.016
	c0.032,0.016,0.072,0.032,0.104,0.04l0,0c0.032,0.016,0.072,0.032,0.104,0.04c0.008,0,0.008,0.008,0.016,0.008
	c0.032,0.016,0.064,0.024,0.088,0.04c0.008,0,0.016,0.008,0.024,0.008c0.112,0.048,0.224,0.088,0.336,0.136h0.008
	c4.648,1.904,9.376,3.68,14.16,5.312l2.584-7.568C170.88,489.064,166.008,487.224,161.256,485.264L161.256,485.264z M190.56,495.28
	l-2.104,7.72c1.344,0.368,2.696,0.72,4.04,1.064l0,0c0.032,0.008,0.064,0.016,0.096,0.024h0.008c0.12,0.032,0.248,0.064,0.368,0.096
	c0.008,0,0.016,0,0.024,0.008c0.032,0.008,0.048,0.016,0.08,0.024c0,0,0.016,0,0.024,0.008c0.08,0.024,0.168,0.04,0.248,0.064
	c0.008,0,0.024,0.008,0.032,0.008c0.024,0.008,0.04,0.008,0.064,0.016c0.016,0,0.032,0.008,0.048,0.008
	c0.016,0.008,0.048,0.008,0.064,0.016c0.016,0.008,0.032,0.008,0.048,0.016s0.04,0.008,0.056,0.016s0.032,0.008,0.048,0.016
	c0.04,0.008,0.072,0.016,0.112,0.024c0.016,0,0.032,0.008,0.048,0.008s0.04,0.008,0.056,0.016s0.032,0.008,0.056,0.016
	s0.032,0.008,0.056,0.016c0.016,0.008,0.032,0.008,0.056,0.016s0.064,0.016,0.088,0.024s0.048,0.008,0.072,0.016
	c0.016,0.008,0.04,0.008,0.056,0.016c0.024,0.008,0.04,0.008,0.064,0.016c0.016,0,0.032,0.008,0.048,0.016
	c0.024,0.008,0.04,0.008,0.064,0.016c0.016,0,0.032,0.008,0.048,0.008c0.024,0.008,0.056,0.016,0.08,0.024
	c0.008,0,0.016,0.008,0.024,0.008c0.032,0.008,0.072,0.016,0.104,0.024c0.016,0,0.024,0.008,0.04,0.008
	c0.024,0.008,0.048,0.008,0.072,0.016c0.016,0.008,0.024,0.008,0.04,0.008c0.024,0.008,0.048,0.016,0.08,0.016
	c0,0,0.024,0.008,0.032,0.008c0.072,0.016,0.144,0.04,0.224,0.056c0.008,0,0.024,0.008,0.032,0.008
	c0.024,0.008,0.056,0.016,0.08,0.024c0.016,0,0.016,0,0.032,0.008c0.032,0.008,0.056,0.016,0.088,0.024c0.008,0,0.016,0,0.024,0.008
	c0.08,0.016,0.152,0.04,0.232,0.056c0.008,0,0.016,0,0.024,0.008c0.032,0.008,0.064,0.016,0.096,0.024c0.008,0,0.016,0,0.024,0.008
	c0.032,0.008,0.064,0.016,0.104,0.024h0.016c0.08,0.016,0.152,0.04,0.232,0.056c0.008,0,0.016,0,0.024,0.008
	c0.032,0.008,0.064,0.016,0.096,0.024c0.008,0,0.008,0,0.016,0.008c0.12,0.032,0.232,0.056,0.352,0.088c0.008,0,0,0,0.008,0
	c0.04,0.008,0.072,0.016,0.112,0.024c0.008,0,0,0,0.008,0c0.12,0.032,0.24,0.056,0.36,0.088h0.008
	c2.272,0.536,4.552,1.04,6.848,1.512l1.616-7.832C200.592,497.84,195.52,496.632,190.56,495.28L190.56,495.28z M220.896,501.536
	l-1.12,7.92c5.248,0.744,10.56,1.328,15.904,1.752l0.624-7.976C231.168,502.824,225.984,502.256,220.896,501.536L220.896,501.536z
	 M267.296,503.744C263.552,503.912,259.784,504,256,504c-1.408,0-2.808-0.008-4.216-0.032l-0.136,8
	c0.944,0.016,1.896,0.024,2.848,0.032h0.008c0.128,0,0.264,0,0.392,0c0.008,0,0.016,0,0.024,0c0.04,0,0.072,0,0.112,0h0.016
	c0.04,0,0.088,0,0.128,0c0.008,0,0,0,0.016,0c0.04,0,0.072,0,0.112,0c0.008,0,0.024,0,0.032,0c0.032,0,0.064,0,0.096,0
	c0.008,0,0.024,0,0.032,0c0.04,0,0.08,0,0.12,0c0.008,0,0.008,0,0.016,0c0.04,0,0.072,0,0.104,0c0.008,0,0.032,0,0.04,0
	c0.032,0,0.056,0,0.088,0c0.008,0,0.032,0,0.04,0c0.04,0,0.08,0,0.12,0l0,0c0.032,0,0.064,0,0.096,0c0.008,0,0.024,0,0.032,0
	c0.024,0,0.04,0,0.064,0c0.016,0,0.032,0,0.04,0c0.016,0,0.04,0,0.056,0s0.032,0,0.048,0s0.04,0,0.056,0s0.032,0,0.048,0
	s0.04,0,0.056,0s0.024,0,0.04,0c0.016,0,0.04,0,0.056,0s0.024,0,0.04,0c0.024,0,0.048,0,0.072,0c0.008,0,0.016,0,0.024,0
	c0.032,0,0.064,0,0.096,0c0.016,0,0.024,0,0.04,0c0.024,0,0.032,0,0.056,0c0.016,0,0.032,0,0.048,0s0.032,0,0.056,0
	c0.016,0,0.032,0,0.048,0s0.04,0,0.056,0s0.032,0,0.048,0s0.032,0,0.048,0s0.032,0,0.048,0s0.024,0,0.04,0c0.016,0,0.032,0,0.056,0
	c0.008,0,0.04,0,0.048,0c0.016,0,0.032,0,0.048,0s0.024,0,0.04,0c0.072,0,0.152,0,0.224,0h0.016c0.024,0,0.048,0,0.072,0
	c0.008,0,0.024,0,0.032,0c0.024,0,0.048,0,0.064,0c0.008,0,0.016,0,0.024,0c0.024,0,0.048,0,0.072,0c0.008,0,0.016,0,0.024,0
	c0.024,0,0.048,0,0.072,0c0.008,0,0.008,0,0.016,0c0.024,0,0.048,0,0.08,0h0.016c0.152,0,0.296,0,0.448-0.008l0,0
	c0.032,0,0.056,0,0.088,0h0.008c2.984-0.032,5.952-0.112,8.912-0.248L267.296,503.744L267.296,503.744z M298.104,500.44
	c-5.064,0.864-10.232,1.584-15.352,2.136l0.856,7.952c5.328-0.568,10.616-1.312,15.84-2.2L298.104,500.44L298.104,500.44z
	 M328.248,493.312c-4.92,1.496-9.952,2.856-14.96,4.04l1.84,7.784c2-0.472,4.008-0.976,5.992-1.496l0,0
	c0.096-0.024,0.184-0.048,0.28-0.072c0,0,0,0,0.008,0c0.024-0.008,0.056-0.016,0.08-0.024c0.008,0,0.016-0.008,0.024-0.008
	c0.024-0.008,0.056-0.016,0.08-0.024c0.008,0,0.008,0,0.016-0.008c0.08-0.024,0.176-0.048,0.256-0.064
	c0.008,0,0.024-0.008,0.032-0.008c0.024-0.008,0.048-0.016,0.072-0.016c0.008,0,0.024-0.008,0.032-0.008
	c0.024-0.008,0.048-0.016,0.072-0.016c0.008,0,0.024-0.008,0.032-0.008c0.04-0.008,0.08-0.024,0.12-0.032
	c0.016-0.008,0.032-0.008,0.048-0.016c0.024-0.008,0.032-0.008,0.056-0.016c0.016-0.008,0.032-0.008,0.048-0.016
	s0.04-0.008,0.056-0.016s0.04-0.008,0.056-0.016c0.024-0.008,0.032-0.008,0.056-0.016c0.032-0.008,0.056-0.016,0.088-0.024
	c0.016-0.008,0.032-0.008,0.048-0.016c0.024-0.008,0.048-0.016,0.072-0.016c0.024-0.008,0.024-0.008,0.048-0.016
	c0.024-0.008,0.04-0.008,0.064-0.016c0.016-0.008,0.032-0.008,0.048-0.016c0.024-0.008,0.048-0.016,0.072-0.016
	c0.016-0.008,0.016-0.008,0.032-0.008c0.04-0.008,0.072-0.016,0.112-0.032c0.008,0,0.016-0.008,0.024-0.008
	c0.032-0.008,0.056-0.016,0.088-0.024c0.008,0,0.024-0.008,0.032-0.008c0.024-0.008,0.048-0.016,0.08-0.024
	c0.008,0,0.024-0.008,0.032-0.008c0.032-0.008,0.064-0.016,0.088-0.024c0.008,0,0.016,0,0.024-0.008
	c0.04-0.008,0.072-0.024,0.112-0.032c0.008,0,0.008,0,0.016-0.008c0.032-0.008,0.064-0.016,0.096-0.024
	c0.008,0,0.016-0.008,0.024-0.008c0.032-0.008,0.064-0.016,0.088-0.024c0.008,0,0.016-0.008,0.024-0.008
	c0.08-0.024,0.152-0.04,0.232-0.064h0.016c0.032-0.008,0.072-0.016,0.104-0.032l0.016-0.008c0.032-0.008,0.072-0.016,0.104-0.032
	h0.016c0.08-0.024,0.16-0.04,0.232-0.064h0.008c0.04-0.008,0.072-0.024,0.112-0.032l0.016-0.008c0.04-0.008,0.072-0.024,0.112-0.032
	h0.008c0.08-0.024,0.16-0.048,0.24-0.064h0.008c0.04-0.008,0.08-0.024,0.112-0.032h0.008c0.12-0.032,0.24-0.064,0.36-0.104l0,0
	c0.32-0.088,0.64-0.184,0.96-0.272l0,0c0.16-0.048,0.32-0.088,0.472-0.136H327c0.12-0.032,0.24-0.072,0.352-0.104
	c0.008,0,0,0,0.008,0c0.04-0.008,0.072-0.024,0.112-0.032c0.008,0,0,0,0.008,0c0.08-0.024,0.16-0.048,0.232-0.072l0,0
	c0.04-0.008,0.072-0.024,0.112-0.032c0.008,0,0.008,0,0.016-0.008c0.032-0.008,0.064-0.016,0.096-0.032c0.008,0,0.008,0,0.016-0.008
	c0.08-0.024,0.152-0.048,0.232-0.064l0.016-0.008c0.032-0.008,0.064-0.016,0.096-0.032c0.008,0,0.016-0.008,0.024-0.008
	c0.032-0.008,0.064-0.016,0.096-0.024c0.008,0,0.016,0,0.024-0.008c0.072-0.024,0.152-0.04,0.224-0.064
	c0.008,0,0.024-0.008,0.032-0.008c0.024-0.008,0.056-0.016,0.08-0.024c0.016-0.008,0.016-0.008,0.032-0.008
	c0.024-0.008,0.056-0.016,0.08-0.024c0.008,0,0.016-0.008,0.024-0.008c0.04-0.008,0.072-0.024,0.112-0.032c0.008,0,0,0,0.008,0
	c0.032-0.008,0.064-0.016,0.096-0.032c0.008,0,0.032-0.008,0.04-0.008c0.024-0.008,0.048-0.016,0.064-0.024s0.032-0.008,0.048-0.016
	c0.024-0.008,0.04-0.016,0.064-0.016c0.016-0.008,0.032-0.008,0.048-0.016c0.032-0.008,0.064-0.016,0.096-0.032
	c0.016-0.008,0.04-0.008,0.056-0.016s0.032-0.008,0.048-0.016c0.024-0.008,0.04-0.008,0.064-0.016
	c0.016-0.008,0.032-0.008,0.04-0.016c0.024-0.008,0.04-0.016,0.064-0.016c0.008,0,0.024-0.008,0.032-0.008
	c0.08-0.024,0.16-0.048,0.24-0.072c0.008,0,0.016-0.008,0.016-0.008c0.04-0.008,0.056-0.016,0.088-0.024
	c0.008,0,0.016,0,0.016-0.008c0.144-0.04,0.272-0.08,0.416-0.128L328.248,493.312L328.248,493.312z M357.256,482.456
	c-4.696,2.104-9.52,4.08-14.336,5.888l2.808,7.496c5.008-1.872,9.944-3.904,14.8-6.08L357.256,482.456L357.256,482.456z
	 M384.68,468.048c-4.4,2.672-8.936,5.24-13.488,7.632l3.72,7.08c2.76-1.448,5.472-2.944,8.176-4.488c0,0,0.008,0,0.008-0.008
	c0.024-0.016,0.048-0.032,0.08-0.048l0,0c0.08-0.048,0.16-0.088,0.232-0.136c0.008,0,0.016-0.008,0.016-0.008
	c0.024-0.016,0.04-0.024,0.072-0.04c0.008-0.008,0.016-0.008,0.024-0.008c0.08-0.048,0.16-0.088,0.232-0.136l0.008-0.008
	c0.024-0.008,0.048-0.024,0.072-0.04c0.008-0.008,0.016-0.008,0.024-0.016c0.024-0.016,0.048-0.024,0.064-0.04
	c0.008-0.008,0.016-0.008,0.024-0.016c0.048-0.032,0.096-0.056,0.144-0.088l0,0c0.024-0.016,0.04-0.024,0.064-0.04
	c0.008-0.008,0.024-0.016,0.032-0.016c0.016-0.008,0.048-0.024,0.056-0.032c0.016-0.008,0.024-0.016,0.04-0.024
	c0.024-0.016,0.04-0.024,0.056-0.032c0.008-0.008,0.016-0.008,0.024-0.016c0.04-0.024,0.072-0.04,0.112-0.064
	c0.008-0.008,0.024-0.016,0.032-0.024c0.024-0.016,0.04-0.024,0.056-0.032c0.016-0.008,0.024-0.016,0.04-0.024
	c0.024-0.016,0.032-0.016,0.056-0.032c0.016-0.008,0.032-0.016,0.048-0.032c0.024-0.016,0.048-0.024,0.064-0.04
	c0.024-0.016,0.04-0.024,0.064-0.04c0.024-0.016,0.024-0.016,0.048-0.032c0.016-0.008,0.032-0.016,0.048-0.024
	s0.04-0.024,0.056-0.032c0.016-0.008,0.032-0.016,0.048-0.024s0.032-0.024,0.048-0.032c0.024-0.016,0.048-0.032,0.072-0.048
	s0.04-0.024,0.056-0.032c0.016-0.008,0.032-0.016,0.048-0.032c0.016-0.008,0.032-0.016,0.048-0.024s0.032-0.016,0.048-0.032
	c0.024-0.016,0.024-0.016,0.048-0.024c0.024-0.016,0.048-0.024,0.064-0.04c0.016-0.008,0.04-0.024,0.048-0.032
	c0.024-0.016,0.048-0.024,0.064-0.04c0.024-0.016,0.024-0.016,0.048-0.024c0.016-0.008,0.032-0.024,0.056-0.032
	c0.016-0.008,0.032-0.016,0.04-0.024c0.016-0.008,0.04-0.024,0.056-0.032c0.016-0.008,0.024-0.016,0.04-0.024
	c0.032-0.016,0.064-0.04,0.088-0.056c0.016-0.008,0.016-0.008,0.032-0.016c0.024-0.016,0.04-0.024,0.064-0.04
	c0.016-0.008,0.024-0.016,0.04-0.024c0.024-0.016,0.04-0.024,0.064-0.04c0.016-0.008,0.024-0.008,0.032-0.024
	c0.032-0.016,0.056-0.032,0.088-0.056c0.008-0.008,0.024-0.016,0.032-0.016c0.024-0.016,0.048-0.024,0.064-0.04
	c0.016-0.008,0.024-0.016,0.04-0.024c0.016-0.008,0.04-0.024,0.056-0.032c0.016-0.008,0.024-0.016,0.04-0.024
	c0.024-0.016,0.04-0.024,0.064-0.04c0.016-0.008,0.016-0.008,0.032-0.016c0.032-0.016,0.064-0.032,0.088-0.056
	c0.016-0.008,0.024-0.016,0.04-0.024c0.016-0.008,0.04-0.024,0.056-0.032c0.016-0.008,0.032-0.016,0.04-0.024
	c0.016-0.008,0.04-0.024,0.056-0.032c0.016-0.008,0.032-0.016,0.04-0.024c0.032-0.016,0.056-0.032,0.088-0.056
	c0.016-0.008,0.032-0.016,0.04-0.024c0.016-0.008,0.032-0.024,0.048-0.032c0.016-0.008,0.04-0.024,0.048-0.032
	c0.016-0.008,0.032-0.016,0.048-0.024c0.024-0.016,0.032-0.016,0.048-0.032c0.016-0.008,0.032-0.024,0.048-0.032
	c0.024-0.016,0.048-0.024,0.072-0.048c0.016-0.008,0.04-0.024,0.056-0.032c0.024-0.016,0.032-0.016,0.048-0.032
	c0.016-0.008,0.032-0.016,0.04-0.024c0.016-0.008,0.04-0.024,0.056-0.032c0.016-0.008,0.024-0.016,0.04-0.024
	c0.032-0.024,0.072-0.04,0.104-0.064c0.008-0.008,0.024-0.016,0.032-0.016c0.024-0.016,0.032-0.024,0.056-0.032
	c0.016-0.008,0.024-0.016,0.04-0.024c0.016-0.008,0.04-0.024,0.056-0.032c0.008-0.008,0.024-0.016,0.032-0.024
	c0.024-0.016,0.04-0.024,0.064-0.04c0,0,0.008-0.008,0.016-0.008c0.04-0.024,0.096-0.056,0.136-0.08
	c0.008,0,0.016-0.008,0.016-0.008c0.024-0.016,0.048-0.024,0.064-0.04c0.008-0.008,0.016-0.008,0.024-0.016
	c0.024-0.016,0.048-0.032,0.064-0.04c0.008,0,0.008-0.008,0.016-0.008c0.08-0.048,0.144-0.088,0.232-0.136l0.008-0.008
	c0.024-0.016,0.048-0.032,0.08-0.048l0.008-0.008c0.056-0.032,0.112-0.072,0.168-0.104L384.68,468.048L384.68,468.048z
	 M410.096,450.328c-4.032,3.2-8.216,6.312-12.432,9.256l4.576,6.56c0.96-0.664,1.912-1.344,2.856-2.024l0,0
	c0.104-0.072,0.2-0.144,0.304-0.216l0,0c0.032-0.024,0.064-0.048,0.096-0.072l0,0c0.064-0.048,0.136-0.096,0.2-0.144h0.008
	c0.032-0.024,0.064-0.048,0.096-0.072c0.008-0.008,0,0,0.008,0c0.096-0.072,0.2-0.144,0.296-0.216l0.008-0.008
	c0.104-0.072,0.2-0.144,0.296-0.216l0,0c0.232-0.168,0.472-0.344,0.704-0.512l0.008-0.008c2.584-1.896,5.136-3.84,7.648-5.824l0,0
	c0.064-0.048,0.128-0.104,0.192-0.152l0,0c0.032-0.024,0.056-0.048,0.088-0.072c0.008-0.008,0,0,0.008-0.008L410.096,450.328
	L410.096,450.328z M433.12,429.592c-3.6,3.672-7.368,7.28-11.192,10.728l5.352,5.944c2.104-1.896,4.176-3.824,6.224-5.792l0,0
	c0.056-0.056,0.12-0.112,0.176-0.176l0,0c0.032-0.024,0.056-0.056,0.088-0.08l0.008-0.008c0.056-0.056,0.12-0.112,0.176-0.168l0,0
	c0.024-0.024,0.056-0.056,0.08-0.08l0.016-0.016c0.024-0.024,0.048-0.048,0.08-0.072l0.008-0.008
	c0.032-0.032,0.056-0.056,0.088-0.088l0,0c0.024-0.024,0.056-0.056,0.08-0.08c0.008-0.008,0.008-0.008,0.016-0.016
	c0.024-0.024,0.048-0.048,0.072-0.064c0.008-0.008,0.008-0.008,0.016-0.016c0.056-0.056,0.112-0.104,0.168-0.16
	c0.008-0.008,0.016-0.016,0.024-0.024c0.024-0.024,0.04-0.04,0.064-0.056c0.008-0.008,0.016-0.016,0.024-0.024
	c0.024-0.024,0.048-0.048,0.072-0.072l0.008-0.008c0.032-0.024,0.056-0.056,0.088-0.08l0.016-0.016
	c0.024-0.024,0.04-0.04,0.064-0.064c0.008-0.008,0.016-0.016,0.024-0.024c0.024-0.024,0.04-0.04,0.064-0.064
	c0.008-0.008,0.008-0.008,0.024-0.016c0.024-0.024,0.056-0.056,0.08-0.08c0.008-0.008,0.008-0.008,0.016-0.016
	c0.024-0.024,0.04-0.04,0.064-0.064c0.008-0.008,0.016-0.016,0.032-0.032c0.016-0.016,0.032-0.032,0.048-0.048
	c0.008-0.008,0.024-0.024,0.032-0.032c0.024-0.024,0.048-0.048,0.072-0.072c0.008-0.008,0.008-0.008,0.016-0.016
	c0.024-0.024,0.048-0.04,0.064-0.064c0.008-0.008,0.024-0.024,0.032-0.032c0.016-0.016,0.032-0.032,0.056-0.048
	c0.008-0.008,0.016-0.016,0.032-0.032c0.016-0.016,0.04-0.04,0.056-0.056c0,0,0.016-0.016,0.024-0.024
	c0.024-0.024,0.048-0.048,0.072-0.072c0.008-0.008,0.024-0.016,0.032-0.032c0.016-0.016,0.032-0.032,0.048-0.048
	c0.008-0.008,0.024-0.024,0.032-0.032c0.016-0.016,0.032-0.032,0.056-0.048c0.008-0.008,0.016-0.016,0.024-0.024
	c0.024-0.024,0.048-0.048,0.08-0.072c0.008-0.008,0.016-0.016,0.032-0.032c0.016-0.016,0.032-0.032,0.048-0.048
	c0.008-0.008,0.024-0.024,0.032-0.032c0.016-0.016,0.032-0.032,0.048-0.048c0.008-0.008,0.024-0.024,0.032-0.032
	c0.024-0.024,0.048-0.048,0.08-0.072c0.008-0.008,0.016-0.016,0.016-0.016c0.024-0.024,0.04-0.04,0.064-0.064l0.032-0.032
	c0.016-0.016,0.04-0.032,0.056-0.056c0.008-0.008,0.024-0.016,0.024-0.024c0.024-0.024,0.048-0.048,0.072-0.072
	c0.008-0.008,0-0.008,0-0.008c0.032-0.032,0.056-0.056,0.088-0.088c0.008-0.008,0.016-0.016,0.024-0.024
	c0.016-0.016,0.04-0.04,0.056-0.056c0.008-0.008,0.016-0.016,0.024-0.024c0.024-0.024,0.04-0.04,0.064-0.064
	c0.008-0.008,0.008-0.008,0.016-0.016c0.024-0.024,0.056-0.056,0.08-0.08c0.008-0.008,0.008-0.008,0.016-0.016
	c0.024-0.024,0.048-0.048,0.072-0.072c0.008-0.008,0.016-0.016,0.016-0.016c0.024-0.024,0.048-0.048,0.072-0.072
	c0.008-0.008,0.008-0.008,0.016-0.016c0.056-0.056,0.112-0.112,0.168-0.168c0,0,0.008-0.008,0.016-0.016
	c0.024-0.024,0.048-0.048,0.072-0.072c0.008-0.008,0.008-0.008,0.016-0.016c0.056-0.056,0.112-0.112,0.168-0.168l0.008-0.008
	c0.024-0.024,0.048-0.048,0.08-0.08c0.008-0.008,0,0,0,0c0.088-0.096,0.176-0.176,0.264-0.264l0,0c0.32-0.328,0.64-0.648,0.96-0.976
	L433.12,429.592L433.12,429.592z M453.392,406.16c-3.12,4.088-6.408,8.136-9.776,12.032l6.048,5.232
	c0.712-0.816,1.408-1.64,2.112-2.464l0.008-0.008c0.024-0.032,0.048-0.056,0.072-0.088c0.008-0.008,0,0,0,0
	c0.056-0.064,0.112-0.128,0.16-0.192l0.008-0.016c0.024-0.024,0.04-0.048,0.064-0.08c0.008-0.008,0.008-0.016,0.016-0.016
	c0.024-0.024,0.04-0.048,0.064-0.072c0.008-0.008,0.008-0.008,0.008-0.016c0.024-0.032,0.048-0.056,0.072-0.088
	c0.008-0.008,0.008-0.016,0.016-0.024c0.016-0.024,0.04-0.048,0.056-0.072c0.008-0.008,0.016-0.016,0.024-0.024
	c0.016-0.024,0.04-0.048,0.056-0.064c0.008-0.008,0.016-0.016,0.016-0.024c0.024-0.032,0.048-0.056,0.072-0.088l0.008-0.008
	c0.024-0.024,0.048-0.056,0.064-0.08c0.008-0.008,0.016-0.016,0.024-0.024c0.016-0.024,0.04-0.048,0.056-0.064
	c0.008-0.008,0.016-0.016,0.016-0.024c0.024-0.024,0.04-0.056,0.064-0.08c0.008-0.008,0.008-0.008,0.008-0.008
	c0.024-0.032,0.048-0.056,0.072-0.088c0.008-0.008,0.016-0.016,0.016-0.024c0.016-0.024,0.032-0.04,0.048-0.064
	c0.008-0.016,0.016-0.016,0.024-0.032c0.016-0.024,0.04-0.04,0.056-0.064c0,0,0.016-0.016,0.016-0.024
	c0.024-0.032,0.048-0.056,0.072-0.088c0.008-0.016,0.008-0.008,0.016-0.024c0.016-0.024,0.032-0.04,0.056-0.064
	c0.008-0.016,0.016-0.016,0.024-0.032c0.016-0.016,0.032-0.04,0.048-0.056c0.008-0.016,0.016-0.016,0.024-0.032
	c0.024-0.024,0.048-0.056,0.072-0.08c0.008-0.008,0.008-0.008,0.016-0.016c0.016-0.024,0.04-0.048,0.056-0.072
	c0.008-0.016,0.016-0.024,0.024-0.032c0.016-0.016,0.032-0.04,0.048-0.056c0.008-0.008,0.024-0.024,0.024-0.024
	c0.024-0.032,0.04-0.056,0.064-0.072c0.008-0.008,0.008-0.008,0.016-0.016c0.024-0.024,0.048-0.056,0.072-0.08
	c0.008-0.016,0.016-0.024,0.024-0.032c0.016-0.016,0.032-0.032,0.04-0.056c0.008-0.016,0.024-0.024,0.032-0.04
	c0.016-0.016,0.032-0.04,0.048-0.056c0.008-0.016,0.016-0.016,0.024-0.032c0.024-0.024,0.048-0.056,0.064-0.08
	c0.008-0.016,0.016-0.024,0.024-0.032c0.016-0.016,0.032-0.04,0.048-0.056c0.008-0.016,0.016-0.024,0.032-0.032
	c0.016-0.016,0.032-0.04,0.048-0.056c0.008-0.016,0.016-0.016,0.024-0.032c0.024-0.024,0.048-0.056,0.064-0.08
	c0.008-0.016,0.016-0.016,0.024-0.032c0.016-0.016,0.032-0.04,0.048-0.056c0.008-0.016,0.024-0.032,0.032-0.04
	c0.016-0.016,0.024-0.032,0.04-0.048c0.008-0.016,0.024-0.024,0.032-0.04c0.016-0.024,0.032-0.04,0.048-0.064
	c0.008-0.016,0.024-0.024,0.032-0.04c0.016-0.024,0.04-0.048,0.056-0.072c0.008-0.016,0.016-0.024,0.032-0.032
	c0.016-0.016,0.032-0.032,0.04-0.056c0.008-0.016,0.016-0.024,0.032-0.04c0.016-0.024,0.032-0.04,0.048-0.064
	c0.008-0.016,0.016-0.016,0.024-0.024c0.024-0.024,0.048-0.056,0.064-0.08c0.008-0.016,0.016-0.024,0.024-0.032
	c0.016-0.016,0.032-0.04,0.04-0.056s0.016-0.024,0.032-0.04c0.016-0.016,0.032-0.032,0.04-0.048s0.024-0.024,0.032-0.04
	c0.024-0.024,0.048-0.056,0.064-0.08c0.008-0.008,0.016-0.016,0.016-0.024c0.016-0.024,0.032-0.04,0.048-0.064
	c0.008-0.016,0.016-0.024,0.024-0.032c0.016-0.016,0.032-0.04,0.048-0.056c0.008-0.008,0.024-0.024,0.024-0.032
	c0.016-0.024,0.04-0.048,0.056-0.072c0.008-0.008,0.008-0.016,0.016-0.016c0.024-0.024,0.048-0.056,0.064-0.08
	c0.008-0.008,0.016-0.024,0.024-0.024c0.016-0.024,0.032-0.04,0.048-0.064c0.008-0.016,0.016-0.016,0.024-0.032
	c0.016-0.024,0.04-0.048,0.056-0.072c0.008-0.008,0.008-0.008,0.016-0.016c0.024-0.032,0.048-0.056,0.072-0.088
	c0.008-0.016,0.008-0.008,0.016-0.024c0.016-0.024,0.04-0.048,0.056-0.072c0.008-0.016,0.008-0.008,0.016-0.024
	c0.016-0.024,0.04-0.048,0.056-0.072c0.008-0.008,0.008-0.008,0.008-0.008c0.032-0.04,0.056-0.064,0.08-0.096
	c0.008-0.008,0,0,0.008-0.008c0.024-0.024,0.04-0.056,0.064-0.08c0.008-0.008,0.016-0.016,0.016-0.024
	c0.016-0.024,0.04-0.048,0.056-0.072c0,0,0.008-0.016,0.016-0.016c0.048-0.064,0.096-0.12,0.144-0.184
	c0.008-0.008,0.008-0.016,0.016-0.016c0.016-0.024,0.04-0.048,0.056-0.072c0.008-0.008,0.016-0.016,0.016-0.016
	c0.024-0.032,0.048-0.056,0.064-0.08c0.008-0.008,0.008-0.008,0.008-0.008c0.032-0.04,0.056-0.064,0.08-0.096l0.008-0.016
	c0.024-0.024,0.04-0.056,0.064-0.08c0.008-0.008,0.008-0.016,0.016-0.016c0.024-0.024,0.04-0.056,0.064-0.08l0.008-0.016
	c0.048-0.064,0.096-0.12,0.144-0.184c0.008-0.008,0.008-0.016,0.016-0.016c0.024-0.024,0.04-0.048,0.064-0.08
	c0.008-0.008,0.008-0.008,0.008-0.016c0.048-0.064,0.096-0.12,0.144-0.184c0.008-0.008,0.008-0.008,0.008-0.016
	c0.024-0.024,0.04-0.056,0.064-0.08c0.008-0.008,0.008-0.008,0.016-0.016c0.048-0.064,0.096-0.128,0.152-0.192l0.008-0.008
	c0.024-0.032,0.048-0.056,0.072-0.088l0.008-0.008c0.072-0.096,0.152-0.192,0.224-0.28c0.008-0.008,0.008-0.008,0.008-0.016
	c0.072-0.096,0.152-0.192,0.224-0.288l0.008-0.008c0.024-0.032,0.048-0.056,0.072-0.088c0.008-0.008,0,0,0.008-0.008
	c0.072-0.096,0.152-0.192,0.224-0.288v-0.008c0.072-0.096,0.152-0.192,0.224-0.288l0.008-0.008c0.104-0.128,0.2-0.264,0.304-0.392
	c0.008-0.008-0.008,0.008-0.008,0.008c0.056-0.072,0.104-0.136,0.16-0.2l0,0c0.024-0.032,0.048-0.064,0.072-0.096l0.008-0.008
	c0.072-0.096,0.152-0.192,0.224-0.288l0.008-0.008c0.072-0.096,0.152-0.192,0.224-0.288c0.008-0.008,0,0,0.008-0.008
	c0.024-0.032,0.04-0.056,0.064-0.088c0.008-0.008,0.008-0.008,0.008-0.016c0.048-0.064,0.096-0.128,0.144-0.192v-0.008
	c0.024-0.032,0.048-0.056,0.072-0.088c0.008-0.008,0.008-0.008,0.008-0.016c0.024-0.032,0.048-0.056,0.064-0.088l0.008-0.008
	c0.024-0.032,0.048-0.064,0.072-0.096l0.008-0.008c0.024-0.032,0.04-0.056,0.064-0.088c0.008-0.008,0.016-0.016,0.016-0.024
	c0.016-0.024,0.04-0.048,0.056-0.072c0.008-0.008,0.008-0.016,0.016-0.024c0.024-0.032,0.048-0.064,0.072-0.096l0,0L453.392,406.16
	L453.392,406.16z M470.6,380.392c-2.584,4.448-5.344,8.872-8.2,13.152l6.656,4.44c2.128-3.184,4.184-6.416,6.168-9.696l0.008-0.008
	c0.064-0.104,0.128-0.208,0.192-0.312v-0.008c0.024-0.032,0.04-0.064,0.064-0.104v-0.008c0.04-0.072,0.08-0.144,0.128-0.208
	c0-0.008,0,0,0.008-0.008c0.016-0.032,0.04-0.064,0.056-0.096c0-0.008,0,0,0-0.008c0.064-0.104,0.128-0.208,0.192-0.312l0.008-0.008
	c0.064-0.104,0.128-0.208,0.192-0.32l0,0c0.488-0.824,0.976-1.648,1.456-2.48L470.6,380.392L470.6,380.392z M484.448,352.688
	c-2.008,4.736-4.192,9.464-6.488,14.072l7.152,3.576c0,0,0.008-0.008,0.008-0.016c0.008-0.024,0.024-0.048,0.032-0.072
	c0.008-0.016,0.008-0.016,0.016-0.032c0.016-0.032,0.032-0.064,0.048-0.096c0.008-0.016,0.016-0.032,0.024-0.04
	c0.008-0.016,0.016-0.04,0.024-0.056s0.016-0.04,0.024-0.056s0.016-0.032,0.024-0.04c0.008-0.024,0.016-0.04,0.032-0.056
	c0.008-0.008,0.008-0.016,0.016-0.032c0.024-0.048,0.048-0.096,0.072-0.144l0,0c0.008-0.024,0.024-0.056,0.04-0.072
	c0,0,0.008-0.016,0.008-0.024c0.016-0.032,0.024-0.048,0.04-0.08l0,0c1.08-2.176,2.12-4.36,3.136-6.568l0,0
	c0.016-0.032,0.024-0.056,0.04-0.08c0,0,0-0.008,0.008-0.008c0.056-0.12,0.104-0.216,0.152-0.336c0-0.008,0.008-0.008,0.008-0.008
	c0.016-0.032,0.024-0.056,0.04-0.08c0-0.008,0.008-0.008,0.008-0.016c0.032-0.072,0.072-0.16,0.112-0.24
	c0-0.008,0.008-0.016,0.008-0.024c0.008-0.024,0.024-0.048,0.032-0.072c0.008-0.008,0.008-0.024,0.016-0.032
	c0.008-0.024,0.024-0.048,0.032-0.064c0-0.008,0.008-0.008,0.008-0.016c0.024-0.048,0.048-0.104,0.064-0.144
	c0-0.008,0.008-0.016,0.008-0.024c0.008-0.024,0.024-0.04,0.032-0.064c0.008-0.016,0.008-0.024,0.016-0.04
	c0.008-0.024,0.016-0.04,0.024-0.064c0.008-0.016,0.008-0.024,0.016-0.04c0.016-0.04,0.032-0.072,0.048-0.104
	c0.008-0.016,0.016-0.032,0.016-0.04c0.008-0.024,0.016-0.032,0.024-0.056c0.008-0.016,0.016-0.032,0.024-0.048
	s0.016-0.04,0.024-0.056s0.016-0.032,0.024-0.048c0.008-0.024,0.016-0.032,0.024-0.056c0.008-0.016,0.016-0.04,0.024-0.056
	c0.016-0.032,0.024-0.056,0.04-0.088c0.008-0.016,0.016-0.032,0.024-0.056s0.016-0.032,0.024-0.056
	c0.008-0.016,0.016-0.032,0.024-0.048s0.016-0.04,0.024-0.056s0.016-0.032,0.024-0.048s0.016-0.04,0.024-0.056
	c0.016-0.032,0.024-0.056,0.04-0.088c0.008-0.016,0.016-0.032,0.024-0.048s0.016-0.04,0.024-0.056s0.016-0.032,0.024-0.048
	s0.016-0.032,0.024-0.056s0.016-0.032,0.024-0.056s0.024-0.048,0.032-0.072c0.008-0.024,0.016-0.04,0.032-0.064
	c0.008-0.024,0.016-0.04,0.024-0.064s0.016-0.024,0.024-0.048c0.008-0.016,0.016-0.04,0.024-0.056s0.016-0.032,0.024-0.048
	c0.008-0.024,0.016-0.04,0.024-0.064c0.008-0.016,0.016-0.024,0.016-0.04c0.016-0.032,0.024-0.064,0.04-0.096
	c0.008-0.016,0.016-0.032,0.024-0.048s0.016-0.04,0.024-0.056s0.016-0.04,0.024-0.048c0.008-0.016,0.016-0.04,0.024-0.056
	s0.016-0.032,0.024-0.048s0.016-0.04,0.024-0.056c0.016-0.032,0.024-0.064,0.04-0.096c0.008-0.016,0.016-0.032,0.024-0.048
	c0.008-0.024,0.016-0.032,0.024-0.056c0.008-0.016,0.016-0.032,0.024-0.048s0.016-0.04,0.024-0.056s0.016-0.032,0.024-0.048
	c0.016-0.032,0.032-0.072,0.048-0.104c0.008-0.016,0.008-0.024,0.016-0.04c0.008-0.024,0.016-0.04,0.024-0.056
	s0.016-0.032,0.016-0.04c0.008-0.016,0.016-0.04,0.024-0.056s0.016-0.032,0.016-0.048c0.008-0.024,0.016-0.04,0.024-0.056
	s0.008-0.024,0.016-0.04c0.016-0.04,0.032-0.08,0.048-0.112c0.008-0.008,0.008-0.024,0.016-0.032
	c0.008-0.024,0.016-0.04,0.032-0.064c0.008-0.016,0.008-0.024,0.016-0.04c0.008-0.024,0.016-0.04,0.024-0.064
	c0.008-0.008,0.008-0.016,0.016-0.032c0.032-0.072,0.072-0.16,0.104-0.232l0.008-0.016c0.016-0.032,0.024-0.048,0.032-0.08
	l0.008-0.008c0.328-0.752,0.648-1.496,0.968-2.248L484.448,352.688L484.448,352.688z M494.712,323.464
	c-1.392,4.952-2.968,9.92-4.672,14.768l7.544,2.648c1.76-5.016,3.376-10.104,4.824-15.248L494.712,323.464L494.712,323.464z
	 M501.232,293.184c-0.768,5.088-1.704,10.216-2.784,15.248l7.824,1.68c0.424-1.984,0.832-3.976,1.208-5.984v-0.008
	c0.008-0.04,0.016-0.072,0.024-0.112c0-0.008,0,0,0-0.008c0.016-0.08,0.032-0.16,0.048-0.24l0,0c0.008-0.04,0.016-0.08,0.024-0.112
	c0-0.008,0-0.008,0-0.016c0.008-0.032,0.016-0.072,0.016-0.104c0-0.008,0-0.008,0-0.016c0.016-0.08,0.032-0.16,0.04-0.232v-0.016
	c0.008-0.032,0.008-0.064,0.016-0.096c0-0.008,0-0.024,0.008-0.032c0.008-0.032,0.008-0.056,0.016-0.088
	c0-0.008,0-0.016,0.008-0.024c0.016-0.08,0.032-0.152,0.04-0.232c0-0.016,0-0.008,0.008-0.032c0.008-0.032,0.008-0.056,0.016-0.088
	c0-0.008,0.008-0.024,0.008-0.032c0.008-0.024,0.008-0.056,0.016-0.08c0-0.008,0.008-0.032,0.008-0.04
	c0.008-0.032,0.008-0.064,0.016-0.096c0-0.008,0-0.008,0-0.016c0.008-0.04,0.016-0.072,0.024-0.112c0-0.016,0-0.016,0.008-0.04
	c0.008-0.024,0.008-0.048,0.016-0.08c0-0.016,0-0.024,0.008-0.04c0.008-0.024,0.008-0.048,0.016-0.072
	c0-0.008,0.008-0.032,0.008-0.04c0.008-0.032,0.008-0.064,0.016-0.088c0-0.008,0-0.016,0-0.024c0.008-0.04,0.016-0.072,0.024-0.112
	c0-0.016,0-0.024,0.008-0.04c0.008-0.024,0.008-0.048,0.016-0.072c0-0.016,0.008-0.024,0.008-0.04
	c0.008-0.024,0.008-0.048,0.016-0.072c0-0.008,0.008-0.032,0.008-0.04c0.008-0.032,0.008-0.056,0.016-0.088
	c0-0.008,0-0.016,0.008-0.024c0.008-0.04,0.016-0.072,0.016-0.112c0-0.016,0-0.024,0.008-0.04c0.008-0.024,0.008-0.048,0.016-0.072
	c0-0.016,0.008-0.032,0.008-0.048c0-0.024,0.008-0.048,0.008-0.064s0.008-0.032,0.008-0.048c0.008-0.024,0.008-0.048,0.016-0.08
	c0-0.008,0.008-0.024,0.008-0.032c0.008-0.032,0.016-0.072,0.016-0.104c0-0.016,0.008-0.032,0.008-0.048
	c0-0.024,0.008-0.048,0.016-0.072c0-0.016,0.008-0.032,0.008-0.048c0-0.024,0.008-0.04,0.008-0.064c0-0.016,0.008-0.032,0.008-0.048
	c0.008-0.024,0.008-0.048,0.016-0.072c0-0.016,0-0.024,0.008-0.04c0.008-0.032,0.016-0.072,0.016-0.104
	c0-0.016,0.008-0.032,0.008-0.048c0-0.024,0.008-0.04,0.008-0.064c0-0.016,0.008-0.032,0.008-0.048s0.008-0.04,0.008-0.064
	c0.008-0.024,0.008-0.032,0.008-0.056c0-0.016,0.008-0.04,0.008-0.056s0.008-0.032,0.008-0.048c0.008-0.032,0.008-0.072,0.016-0.104
	c0-0.016,0.008-0.04,0.008-0.056s0.008-0.04,0.008-0.064c0-0.016,0.008-0.04,0.008-0.056s0.008-0.032,0.008-0.056
	s0.008-0.032,0.008-0.056c0-0.016,0.008-0.032,0.008-0.048c0.008-0.032,0.016-0.08,0.016-0.112c0-0.016,0.008-0.032,0.008-0.048
	c0.008-0.024,0.008-0.04,0.008-0.064c0-0.016,0.008-0.032,0.008-0.048s0.008-0.048,0.008-0.064s0.008-0.032,0.008-0.048
	c0-0.024,0.008-0.04,0.008-0.064c0-0.016,0.008-0.032,0.008-0.048c0.016-0.072,0.024-0.16,0.04-0.232
	c0-0.016,0.008-0.024,0.008-0.04c0.008-0.024,0.008-0.04,0.008-0.072c0-0.016,0.008-0.024,0.008-0.04
	c0-0.024,0.008-0.048,0.008-0.072c0-0.008,0-0.024,0.008-0.032c0.016-0.08,0.024-0.168,0.04-0.248c0-0.008,0-0.024,0.008-0.032
	c0-0.024,0.008-0.048,0.008-0.072c0-0.016,0-0.024,0.008-0.04c0-0.024,0.008-0.048,0.016-0.072c0-0.008,0-0.016,0-0.024
	c0.016-0.08,0.032-0.184,0.04-0.264c0-0.008,0-0.016,0-0.024c0.008-0.032,0.008-0.048,0.016-0.08c0-0.008,0-0.016,0-0.024
	c0.008-0.032,0.008-0.056,0.016-0.088l0,0c0.016-0.096,0.032-0.192,0.048-0.296l0,0c0.008-0.032,0.008-0.064,0.016-0.096v-0.008
	c0.152-0.936,0.296-1.856,0.432-2.792L501.232,293.184L501.232,293.184z M503.92,262.312c-0.128,5.152-0.416,10.368-0.864,15.48
	l7.968,0.696c0.352-4.064,0.616-8.152,0.776-12.272c0-0.008,0-0.016,0-0.016c0-0.032,0-0.048,0-0.08c0-0.008,0-0.024,0-0.032
	c0-0.024,0-0.048,0-0.08c0-0.016,0-0.024,0-0.04c0-0.032,0-0.056,0-0.096c0-0.032,0-0.056,0-0.08c0-0.016,0-0.04,0-0.056
	c0-0.024,0-0.04,0-0.064c0-0.016,0-0.032,0-0.048c0-0.024,0-0.048,0-0.072c0-0.016,0-0.024,0-0.04c0-0.032,0-0.056,0-0.088
	c0-0.008,0-0.016,0-0.024c0-0.08,0.008-0.16,0.008-0.248l0,0c0-0.04,0-0.08,0.008-0.12v-0.008c0.032-0.832,0.056-1.672,0.072-2.512
	L503.92,262.312L503.92,262.312z M510.752,230.552l-7.96,0.784c0.504,5.112,0.856,10.312,1.04,15.464l7.992-0.288
	C511.632,241.144,511.272,235.824,510.752,230.552L510.752,230.552z M505.624,198.984l-7.8,1.776
	c1.144,5.008,2.136,10.128,2.96,15.208l7.896-1.28c-0.616-3.776-1.312-7.528-2.088-11.248v-0.008
	c-0.024-0.128-0.048-0.248-0.08-0.376c0,0,0-0.008,0-0.016c-0.008-0.032-0.008-0.056-0.016-0.088c0-0.008,0-0.016,0-0.016
	c-0.008-0.032-0.008-0.056-0.016-0.088v-0.008c-0.016-0.088-0.04-0.184-0.056-0.272c0-0.008,0-0.016-0.008-0.024
	c-0.008-0.024-0.008-0.056-0.016-0.08c0-0.008,0-0.016-0.008-0.032c-0.008-0.024-0.008-0.056-0.016-0.08c0-0.008,0-0.008,0-0.016
	c-0.016-0.064-0.024-0.12-0.04-0.184l0,0c-0.008-0.024-0.008-0.048-0.016-0.072c0-0.016-0.008-0.024-0.008-0.04
	c0-0.016-0.008-0.056-0.016-0.072c0-0.016-0.008-0.024-0.008-0.04c-0.008-0.024-0.008-0.048-0.016-0.072
	c0-0.008-0.008-0.016-0.008-0.032c-0.008-0.048-0.016-0.088-0.032-0.136c0-0.008-0.008-0.024-0.008-0.032
	c-0.008-0.024-0.008-0.04-0.016-0.064c0-0.016-0.008-0.032-0.008-0.04c0-0.016-0.008-0.048-0.016-0.064
	c0-0.016-0.008-0.032-0.008-0.048c-0.008-0.024-0.008-0.04-0.016-0.064c0-0.016-0.008-0.032-0.008-0.04
	c-0.008-0.032-0.016-0.08-0.024-0.112c0-0.016-0.008-0.032-0.008-0.048c-0.008-0.024-0.008-0.04-0.016-0.064
	c0-0.016-0.008-0.032-0.008-0.048s-0.008-0.048-0.016-0.064c0-0.016-0.008-0.024-0.008-0.04c-0.008-0.024-0.008-0.04-0.016-0.064
	c0-0.016-0.008-0.024-0.008-0.04c-0.008-0.048-0.016-0.088-0.032-0.136c0-0.008-0.008-0.024-0.008-0.032
	c-0.008-0.024-0.008-0.04-0.016-0.064c0-0.016-0.008-0.032-0.008-0.04c0-0.016-0.008-0.048-0.016-0.064
	c0-0.016-0.008-0.032-0.008-0.048c-0.008-0.024-0.008-0.04-0.016-0.064c0-0.016-0.008-0.024-0.008-0.04
	c-0.008-0.048-0.016-0.088-0.032-0.136c0-0.008,0-0.016-0.008-0.024c-0.008-0.024-0.008-0.048-0.016-0.072
	c0-0.016-0.008-0.024-0.008-0.04c0-0.016-0.008-0.056-0.016-0.072c0-0.008-0.008-0.024-0.008-0.04
	c-0.008-0.024-0.008-0.048-0.016-0.072c0-0.008-0.008-0.016-0.008-0.024c-0.008-0.048-0.024-0.096-0.032-0.144
	c0-0.008,0-0.016-0.008-0.024c-0.008-0.024-0.008-0.048-0.016-0.072c0-0.008-0.008-0.024-0.008-0.032
	c0-0.016-0.016-0.056-0.016-0.072c0-0.008-0.008-0.024-0.008-0.032c-0.008-0.024-0.008-0.056-0.016-0.08v-0.008
	c-0.024-0.088-0.04-0.176-0.064-0.264c0-0.008,0-0.016-0.008-0.024c-0.008-0.032-0.008-0.048-0.016-0.08
	c0-0.008,0-0.016-0.008-0.024C505.64,199.032,505.632,199,505.624,198.984L505.624,198.984z M496.584,168.312l-7.512,2.744
	c1.76,4.832,3.392,9.784,4.848,14.72l7.672-2.264c-0.048-0.16-0.096-0.32-0.144-0.48v-0.008c-0.032-0.12-0.072-0.232-0.104-0.352
	c0-0.008-0.008-0.016-0.008-0.024c-0.008-0.032-0.016-0.056-0.024-0.088c0-0.008-0.008-0.024-0.008-0.024
	c-0.008-0.032-0.024-0.072-0.032-0.104c0-0.008,0,0,0-0.008c-0.008-0.04-0.024-0.072-0.032-0.112
	c-0.008-0.016-0.008-0.016-0.008-0.032c-0.008-0.024-0.016-0.048-0.024-0.072c-0.008-0.016-0.008-0.024-0.016-0.04
	c-0.008-0.024-0.016-0.048-0.024-0.072c-0.008-0.016-0.008-0.032-0.016-0.04c-0.008-0.024-0.016-0.056-0.024-0.08
	c-0.008-0.016-0.016-0.04-0.016-0.056c-0.008-0.024-0.016-0.048-0.024-0.072s-0.008-0.032-0.016-0.048s-0.008-0.04-0.016-0.056
	s-0.016-0.04-0.016-0.056c-0.008-0.016-0.008-0.032-0.016-0.048c-0.008-0.024-0.008-0.04-0.016-0.064c0-0.008,0-0.008,0-0.016
	c-0.016-0.048-0.032-0.096-0.04-0.144c-0.008-0.016-0.008-0.032-0.016-0.04c-0.008-0.024-0.016-0.04-0.024-0.064
	c0-0.016-0.008-0.024-0.008-0.04c-0.008-0.024-0.016-0.048-0.024-0.064c0-0.008-0.008-0.016-0.008-0.024
	c-0.024-0.08-0.048-0.168-0.072-0.248c0-0.008-0.008-0.016-0.008-0.024c-0.008-0.032-0.016-0.048-0.024-0.08
	c0-0.008-0.008-0.016-0.008-0.016c-0.04-0.128-0.072-0.232-0.112-0.36l-0.008-0.016c-0.008-0.032-0.016-0.056-0.024-0.088l0,0
	c-0.04-0.128-0.072-0.248-0.112-0.368v-0.008c-0.32-1.032-0.648-2.056-0.976-3.088v-0.008c-0.04-0.128-0.08-0.24-0.12-0.368v-0.008
	c-0.04-0.128-0.08-0.24-0.12-0.368v-0.008c-0.008-0.032-0.016-0.056-0.032-0.088c0-0.008,0-0.008-0.008-0.016
	c-0.04-0.12-0.08-0.24-0.12-0.352c0-0.008,0-0.016,0-0.016c-0.016-0.04-0.016-0.056-0.032-0.088c0-0.008-0.008-0.016-0.008-0.024
	c-0.024-0.08-0.056-0.176-0.08-0.248c0-0.008-0.008-0.016-0.008-0.016c-0.008-0.024-0.016-0.048-0.024-0.072
	c0-0.008-0.008-0.024-0.008-0.032c-0.008-0.024-0.016-0.048-0.024-0.072c0-0.008-0.008-0.016-0.008-0.024
	c-0.024-0.08-0.056-0.16-0.08-0.24c0-0.008-0.008-0.024-0.008-0.032c-0.008-0.024-0.016-0.04-0.024-0.064
	c-0.008-0.016-0.008-0.024-0.016-0.04c-0.008-0.024-0.016-0.04-0.024-0.064c-0.008-0.016-0.008-0.024-0.016-0.04
	c-0.016-0.048-0.024-0.08-0.04-0.128c0-0.008-0.008-0.024-0.008-0.032c-0.008-0.024-0.016-0.04-0.024-0.064
	c-0.008-0.016-0.008-0.032-0.016-0.048s-0.016-0.04-0.016-0.056c-0.008-0.016-0.016-0.04-0.016-0.056
	c-0.008-0.024-0.008-0.032-0.016-0.048c-0.008-0.024-0.016-0.056-0.024-0.08c-0.008-0.016-0.016-0.04-0.016-0.048
	c-0.008-0.024-0.016-0.048-0.024-0.072c-0.008-0.016-0.008-0.032-0.016-0.048c-0.008-0.024-0.016-0.04-0.024-0.064
	c-0.008-0.016-0.008-0.024-0.016-0.04c-0.008-0.024-0.016-0.048-0.024-0.072c-0.008-0.016-0.008-0.016-0.008-0.032
	c-0.008-0.032-0.024-0.072-0.032-0.104c-0.008-0.016-0.008-0.016-0.008-0.032c-0.008-0.024-0.016-0.048-0.024-0.08
	c-0.008-0.016-0.008-0.024-0.016-0.04c-0.008-0.024-0.016-0.048-0.024-0.072c0-0.008-0.008-0.032-0.016-0.04
	c-0.008-0.032-0.024-0.064-0.032-0.088c0-0.008,0-0.008-0.008-0.016c-0.016-0.04-0.024-0.072-0.04-0.112
	c0-0.008-0.008-0.024-0.008-0.032c-0.008-0.024-0.016-0.056-0.024-0.08c-0.008-0.016-0.008-0.024-0.016-0.04
	c-0.008-0.024-0.016-0.056-0.024-0.08c0-0.008-0.008-0.016-0.008-0.024c-0.024-0.072-0.048-0.144-0.072-0.224
	c0-0.008-0.008-0.016-0.008-0.024c-0.008-0.032-0.024-0.064-0.032-0.088c0-0.008-0.008-0.016-0.008-0.024
	c-0.04-0.112-0.08-0.224-0.12-0.336c0-0.008,0-0.008-0.008-0.016c-0.008-0.032-0.024-0.064-0.032-0.096c0-0.008,0-0.008-0.008-0.016
	c-0.04-0.112-0.08-0.232-0.12-0.344l0,0C497.4,170.576,497,169.44,496.584,168.312L496.584,168.312z M483.768,139.016l-7.112,3.664
	c2.352,4.576,4.592,9.28,6.656,13.992l7.328-3.208C488.496,148.56,486.2,143.744,483.768,139.016L483.768,139.016z M467.384,111.552
	l-6.6,4.52c2.904,4.248,5.72,8.64,8.352,13.056l6.872-4.096C473.264,120.44,470.392,115.944,467.384,111.552L467.384,111.552z
	 M447.704,86.336l-5.992,5.304c3.416,3.856,6.744,7.864,9.912,11.92l6.304-4.92c-0.032-0.048-0.08-0.104-0.112-0.144
	c-0.008-0.008-0.008-0.016-0.008-0.016c-0.024-0.032-0.032-0.04-0.048-0.064c-0.008-0.008-0.016-0.016-0.024-0.032
	c-0.016-0.016-0.032-0.04-0.04-0.056l-0.008-0.008c-0.024-0.032-0.056-0.072-0.08-0.104c-0.016-0.016-0.024-0.032-0.04-0.048
	c-0.008-0.016-0.024-0.024-0.032-0.04c-0.016-0.016-0.032-0.04-0.048-0.056c-0.008-0.008-0.016-0.024-0.024-0.024
	c-0.048-0.064-0.096-0.12-0.144-0.184c-0.008-0.008-0.008-0.016-0.016-0.016c-0.024-0.024-0.04-0.056-0.064-0.08
	c-0.008-0.008,0-0.008-0.008-0.008c-2.296-2.912-4.648-5.768-7.064-8.576c-0.008-0.008-0.008-0.008-0.008-0.016
	c-0.024-0.024-0.048-0.056-0.072-0.08l-0.008-0.008c-0.024-0.032-0.056-0.064-0.08-0.088l0,0c-0.024-0.024-0.048-0.056-0.072-0.08
	c-0.008-0.008-0.016-0.024-0.024-0.032c-0.016-0.016-0.032-0.04-0.048-0.056c-0.008-0.008-0.024-0.024-0.024-0.032
	c-0.016-0.016-0.032-0.04-0.048-0.056c-0.024-0.024-0.04-0.04-0.056-0.064c-0.008-0.016-0.024-0.024-0.032-0.04
	c-0.016-0.016-0.032-0.032-0.048-0.048c-0.008-0.008-0.016-0.016-0.024-0.032c-0.016-0.016-0.032-0.032-0.048-0.056
	c-0.008-0.008-0.016-0.016-0.024-0.024C448.944,87.744,448.328,87.04,447.704,86.336L447.704,86.336z M425.056,63.76l-5.288,6.008
	c3.864,3.4,7.664,6.968,11.312,10.6l5.648-5.664c-0.992-0.992-1.992-1.968-3-2.944l0,0c-0.024-0.024-0.048-0.04-0.064-0.064l0,0
	c-0.072-0.064-0.136-0.128-0.208-0.2l0,0c-0.024-0.024-0.04-0.04-0.064-0.064l-0.008-0.008c-0.072-0.064-0.136-0.128-0.2-0.192l0,0
	c-0.024-0.032-0.048-0.056-0.064-0.072c-0.008-0.008-0.008-0.008-0.016-0.016c-0.024-0.024-0.032-0.032-0.056-0.056l-0.016-0.016
	c-0.056-0.056-0.12-0.112-0.176-0.168c-0.008-0.008-0.016-0.016-0.024-0.024c-0.024-0.024-0.032-0.032-0.056-0.048
	c-0.008-0.008-0.016-0.016-0.024-0.024c-0.056-0.056-0.112-0.112-0.176-0.168c-0.008-0.008-0.016-0.016-0.024-0.024
	c-0.016-0.016-0.032-0.032-0.048-0.048c-0.008-0.008-0.016-0.016-0.024-0.024c-0.016-0.016-0.04-0.032-0.056-0.048
	c-0.008-0.008-0.016-0.008-0.016-0.016c-0.032-0.032-0.064-0.064-0.096-0.096c-0.008-0.008-0.016-0.016-0.032-0.024
	c-0.016-0.016-0.032-0.032-0.048-0.048c-0.008-0.008-0.024-0.024-0.032-0.032c-0.016-0.016-0.032-0.024-0.048-0.048
	c-0.008-0.008-0.024-0.024-0.032-0.032c-0.024-0.024-0.048-0.048-0.072-0.064c-0.016-0.016-0.032-0.032-0.048-0.04
	c-0.016-0.016-0.024-0.024-0.04-0.04c-0.016-0.008-0.024-0.024-0.04-0.032c-0.008-0.008-0.032-0.032-0.048-0.04
	s-0.024-0.024-0.032-0.032c-0.016-0.016-0.024-0.024-0.048-0.04c-0.008-0.008-0.024-0.016-0.032-0.032
	c-0.032-0.024-0.056-0.056-0.088-0.08c-0.008-0.008-0.024-0.024-0.032-0.032c-0.008-0.008-0.032-0.032-0.04-0.04
	c-0.016-0.016-0.024-0.024-0.04-0.032c-0.016-0.016-0.024-0.024-0.04-0.04c-0.016-0.016-0.032-0.032-0.048-0.048
	c-0.024-0.024-0.04-0.04-0.064-0.064c-0.016-0.016-0.024-0.024-0.04-0.04c-0.016-0.016-0.032-0.024-0.048-0.04
	c-0.008-0.008-0.024-0.024-0.032-0.032c-0.016-0.016-0.024-0.024-0.04-0.04c-0.016-0.008-0.024-0.024-0.04-0.032
	c-0.024-0.024-0.056-0.056-0.08-0.072c-0.008-0.008-0.024-0.024-0.032-0.032c-0.016-0.016-0.024-0.024-0.048-0.04
	c-0.008-0.008-0.024-0.024-0.032-0.032c-0.008-0.008-0.032-0.032-0.048-0.04s-0.024-0.024-0.04-0.032
	c-0.016-0.016-0.024-0.024-0.04-0.04c-0.016-0.016-0.024-0.024-0.04-0.04c-0.032-0.024-0.048-0.04-0.072-0.072
	c-0.008-0.008-0.024-0.024-0.032-0.032c-0.008-0.008-0.032-0.032-0.048-0.04s-0.024-0.024-0.032-0.032
	c-0.016-0.016-0.032-0.024-0.048-0.04c-0.008-0.008-0.024-0.016-0.032-0.032c-0.024-0.024-0.056-0.056-0.08-0.072
	c-0.016-0.008-0.024-0.024-0.04-0.032c-0.016-0.016-0.024-0.024-0.04-0.04c-0.016-0.016-0.024-0.024-0.04-0.04
	c-0.016-0.016-0.024-0.024-0.04-0.04c-0.008-0.008-0.024-0.024-0.032-0.032c-0.032-0.032-0.056-0.048-0.088-0.088
	c-0.008-0.008-0.016-0.016-0.024-0.024c-0.016-0.016-0.032-0.024-0.048-0.048c-0.008-0.008-0.024-0.024-0.032-0.032
	c-0.016-0.016-0.032-0.024-0.048-0.048c-0.008-0.008-0.024-0.016-0.032-0.032c-0.056-0.056-0.104-0.096-0.168-0.152
	c-0.008-0.008-0.024-0.024-0.032-0.032c-0.008-0.008-0.032-0.032-0.048-0.04c-0.032-0.032-0.04-0.04-0.056-0.056
	c-0.016-0.016-0.032-0.032-0.048-0.048h-0.008c-0.04-0.04-0.08-0.072-0.12-0.112c-0.008-0.008-0.016-0.008-0.016-0.016
	c-0.016-0.016-0.04-0.04-0.056-0.056c-0.008-0.008-0.016-0.016-0.024-0.016c-0.016-0.016-0.04-0.04-0.056-0.056
	c-0.008-0.008-0.008-0.008-0.016-0.016c-0.032-0.032-0.072-0.072-0.112-0.104c-0.008-0.008-0.016-0.016-0.024-0.016
	c-0.016-0.016-0.04-0.032-0.056-0.048c-0.008-0.008-0.016-0.016-0.024-0.016c-0.016-0.016-0.04-0.04-0.056-0.056
	c-0.008-0.008-0.008-0.008-0.016-0.016c-0.056-0.056-0.136-0.12-0.192-0.176c-0.008,0-0.008-0.008-0.016-0.016
	c-0.024-0.024-0.04-0.032-0.064-0.056l-0.008-0.008c-0.072-0.064-0.136-0.12-0.208-0.184l-0.008-0.008
	c-0.024-0.024-0.04-0.04-0.064-0.056l-0.008-0.008c-0.096-0.088-0.184-0.168-0.272-0.248l0,0
	C427.208,65.664,426.144,64.712,425.056,63.76L425.056,63.76z M399.784,44.168l-4.496,6.616c4.256,2.896,8.472,5.96,12.536,9.112
	l4.904-6.32c-2.4-1.864-4.84-3.68-7.304-5.456l0,0c-0.032-0.024-0.064-0.048-0.096-0.072c-0.008-0.008,0,0-0.008-0.008
	c-0.064-0.048-0.128-0.096-0.192-0.144l-0.008-0.008c-0.032-0.024-0.056-0.04-0.088-0.064c-0.008-0.008-0.016-0.008-0.016-0.016
	c-0.024-0.016-0.056-0.04-0.08-0.056c-0.008-0.008-0.008-0.008-0.016-0.008c-0.032-0.024-0.064-0.048-0.096-0.064
	c-0.008-0.008-0.008-0.008-0.016-0.008c-0.024-0.016-0.048-0.04-0.08-0.056c-0.016-0.008-0.024-0.016-0.032-0.024
	c-0.024-0.016-0.04-0.032-0.064-0.048L404.6,47.52c-0.032-0.024-0.056-0.04-0.08-0.056c-0.008-0.008-0.016-0.008-0.024-0.016
	c-0.024-0.016-0.048-0.032-0.072-0.056c-0.008-0.008-0.032-0.024-0.04-0.024c-0.016-0.016-0.04-0.024-0.056-0.04
	c-0.016-0.008-0.024-0.016-0.04-0.032c-0.024-0.016-0.04-0.032-0.064-0.048c-0.016-0.008-0.016-0.008-0.032-0.016
	c-0.032-0.024-0.056-0.04-0.088-0.064c-0.016-0.016-0.024-0.016-0.048-0.032c-0.016-0.008-0.032-0.024-0.048-0.032
	c-0.016-0.008-0.04-0.024-0.048-0.032c-0.008-0.008-0.024-0.016-0.032-0.024c-0.064-0.048-0.128-0.088-0.192-0.136
	c-0.008-0.008-0.016-0.016-0.024-0.016c-0.016-0.016-0.04-0.032-0.056-0.04c-0.008-0.008-0.016-0.016-0.032-0.024
	c-0.016-0.016-0.04-0.032-0.056-0.04c-0.008,0-0.008-0.008-0.008-0.008c-0.048-0.04-0.096-0.064-0.144-0.104h-0.008
	c-0.032-0.024-0.048-0.032-0.072-0.048c-0.008,0-0.008-0.008-0.016-0.008c-0.024-0.016-0.04-0.032-0.072-0.048l-0.008-0.008
	c-0.08-0.056-0.144-0.096-0.224-0.152c0,0-0.008-0.008-0.016-0.008c-0.024-0.016-0.04-0.032-0.072-0.048
	c-0.008,0-0.008-0.008-0.008-0.008c-0.112-0.08-0.2-0.144-0.304-0.216l-0.008-0.008c-0.104-0.072-0.2-0.144-0.304-0.216h-0.008
	c-0.104-0.072-0.208-0.144-0.312-0.216c0,0,0,0-0.008,0c-0.024-0.016-0.048-0.032-0.08-0.056l0,0
	c-0.08-0.056-0.152-0.104-0.232-0.16l0,0c-0.016-0.04-0.04-0.056-0.064-0.072h-0.008c-0.104-0.072-0.208-0.144-0.312-0.216h-0.008
	c-0.032-0.024-0.048-0.032-0.08-0.056l0,0c-0.08-0.056-0.152-0.104-0.232-0.16h-0.008c-0.024-0.016-0.048-0.032-0.072-0.048
	l-0.008-0.008c-0.08-0.056-0.144-0.096-0.224-0.152l-0.008-0.008c-0.024-0.016-0.04-0.032-0.072-0.048c0,0-0.016-0.008-0.016-0.016
	c-0.016-0.016-0.048-0.032-0.064-0.048h-0.008c-0.048-0.032-0.088-0.064-0.136-0.096c-0.008-0.008-0.016-0.008-0.016-0.016
	c-0.016-0.016-0.04-0.024-0.056-0.04c-0.016-0.016-0.032-0.016-0.04-0.024c-0.024-0.016-0.04-0.024-0.056-0.04
	c-0.008-0.008-0.024-0.016-0.032-0.024c-0.032-0.024-0.072-0.048-0.104-0.072c-0.008-0.008-0.024-0.016-0.032-0.024
	c-0.024-0.016-0.032-0.024-0.056-0.04c-0.016-0.008-0.024-0.016-0.04-0.024c-0.016-0.008-0.04-0.024-0.048-0.032
	c-0.016-0.008-0.032-0.024-0.048-0.032C399.808,44.176,399.8,44.176,399.784,44.168L399.784,44.168z M372.272,27.864l-3.64,7.128
	c4.576,2.336,9.144,4.856,13.576,7.48l4.08-6.88c-0.84-0.496-1.68-0.984-2.52-1.472c0,0,0,0-0.008,0
	c-0.08-0.048-0.16-0.088-0.232-0.136c-0.008,0-0.008-0.008-0.016-0.008c-0.024-0.008-0.04-0.024-0.064-0.032
	c-0.016-0.008-0.024-0.016-0.04-0.024c-0.024-0.016-0.04-0.024-0.056-0.032c-0.008-0.008-0.024-0.016-0.032-0.016
	c-0.032-0.024-0.064-0.04-0.104-0.056c-0.016-0.008-0.024-0.016-0.04-0.024s-0.032-0.016-0.048-0.024s-0.032-0.016-0.048-0.032
	c-0.016-0.008-0.032-0.016-0.048-0.024s-0.032-0.024-0.056-0.032c-0.016-0.008-0.032-0.016-0.04-0.024
	c-0.032-0.016-0.064-0.032-0.088-0.048c-0.016-0.008-0.016-0.008-0.032-0.016c-0.024-0.016-0.048-0.024-0.064-0.04
	c-0.016-0.008-0.024-0.016-0.032-0.024c-0.024-0.016-0.048-0.024-0.064-0.04c-0.008-0.008-0.024-0.016-0.032-0.016
	c-0.064-0.04-0.136-0.072-0.2-0.112c-0.008-0.008-0.016-0.008-0.016-0.008c-0.032-0.016-0.056-0.032-0.088-0.048
	c-0.008-0.008-0.008-0.008-0.016-0.008c-0.104-0.056-0.208-0.12-0.312-0.176l-0.008-0.008
	C378.768,31.272,375.544,29.536,372.272,27.864L372.272,27.864z M342.936,15.136l-2.72,7.528c4.832,1.744,9.68,3.672,14.4,5.72
	l3.184-7.336c-3.6-1.56-7.256-3.048-10.936-4.448l0,0c-0.152-0.056-0.296-0.112-0.448-0.168c-0.008,0-0.008-0.008-0.016-0.008
	c-0.032-0.008-0.048-0.016-0.08-0.032l0,0c-0.08-0.032-0.176-0.064-0.256-0.096c-0.008,0-0.016-0.008-0.024-0.008
	c-0.032-0.008-0.04-0.016-0.072-0.024c-0.008,0-0.016-0.008-0.032-0.008c-0.024-0.008-0.048-0.016-0.072-0.024
	c0,0-0.008,0-0.008-0.008c-0.056-0.024-0.088-0.032-0.144-0.056c-0.016-0.008-0.032-0.008-0.04-0.016
	c-0.024-0.008-0.032-0.016-0.056-0.024c-0.016-0.008-0.04-0.016-0.056-0.024s-0.032-0.008-0.048-0.016
	c-0.024-0.008-0.048-0.016-0.072-0.032c-0.008,0-0.024-0.008-0.032-0.008c-0.032-0.016-0.064-0.024-0.104-0.04
	c-0.024-0.008-0.032-0.008-0.04-0.016c-0.024-0.008-0.048-0.016-0.072-0.024c-0.016-0.008-0.016-0.008-0.032-0.016
	c-0.032-0.008-0.056-0.024-0.088-0.032c-0.008,0-0.016-0.008-0.024-0.008c-0.072-0.024-0.144-0.056-0.224-0.08
	c-0.008,0-0.008-0.008-0.016-0.008c-0.032-0.016-0.064-0.024-0.096-0.04c-0.008,0-0.008,0-0.016-0.008
	C344.112,15.568,343.52,15.352,342.936,15.136L342.936,15.136z M312.232,6.192L310.48,14c5.024,1.128,10.072,2.424,15.008,3.864
	l2.24-7.68c-1.776-0.52-3.56-1.016-5.352-1.496l0,0c-0.032-0.008-0.056-0.016-0.088-0.024h-0.008c-0.12-0.032-0.24-0.064-0.36-0.096
	c-0.008,0-0.016-0.008-0.024-0.008c-0.024-0.008-0.048-0.016-0.072-0.016c-0.008,0-0.016-0.008-0.032-0.008
	c-0.08-0.024-0.152-0.04-0.232-0.064c-0.016-0.008-0.032-0.008-0.048-0.016c-0.024-0.008-0.04-0.008-0.064-0.016
	c-0.016-0.008-0.032-0.008-0.048-0.016c-0.016-0.008-0.04-0.008-0.056-0.016c-0.016-0.008-0.04-0.008-0.056-0.016
	c-0.016-0.008-0.04-0.008-0.048-0.016c-0.032-0.008-0.064-0.016-0.104-0.024c-0.016-0.008-0.032-0.008-0.048-0.016
	c-0.024-0.008-0.04-0.008-0.056-0.016c-0.016-0.008-0.04-0.008-0.056-0.016c-0.024-0.008-0.04-0.008-0.064-0.016
	c-0.016-0.008-0.032-0.008-0.048-0.016c-0.024-0.008-0.056-0.016-0.08-0.024c-0.008,0-0.016-0.008-0.024-0.008
	c-0.04-0.008-0.072-0.016-0.104-0.032C320.64,8.2,320.632,8.2,320.616,8.2c-0.024-0.008-0.048-0.016-0.072-0.016
	c-0.016-0.008-0.032-0.008-0.048-0.008c-0.024-0.008-0.048-0.016-0.072-0.016c-0.008,0-0.032-0.008-0.04-0.008
	c-0.032-0.008-0.072-0.016-0.104-0.024h-0.008c-0.032-0.008-0.072-0.016-0.104-0.024c-0.008,0-0.024-0.008-0.032-0.008
	c-0.024-0.008-0.056-0.016-0.08-0.024c-0.016-0.008-0.016-0.008-0.032-0.008c-0.032-0.008-0.064-0.016-0.088-0.024l-0.024-0.008
	c-0.088-0.016-0.168-0.032-0.24-0.048c-0.008,0-0.016-0.008-0.024-0.008c-0.032-0.008-0.064-0.016-0.088-0.024
	c-0.008,0-0.024-0.008-0.024-0.008c-0.032-0.008-0.064-0.016-0.104-0.024h-0.008c-0.04-0.008-0.08-0.024-0.12-0.032l0,0
	c-0.04-0.008-0.072-0.016-0.112-0.032c-0.008,0-0.008,0-0.016-0.008c-0.032-0.008-0.064-0.016-0.096-0.024
	c-0.008,0-0.016-0.008-0.024-0.008c-0.04-0.008-0.072-0.016-0.112-0.024c-0.008,0,0.008,0,0,0c-0.04-0.008-0.08-0.024-0.12-0.032
	h-0.008c-0.032-0.008-0.072-0.016-0.104-0.024c-0.008,0-0.016-0.008-0.024-0.008c-0.032-0.008-0.064-0.016-0.096-0.024
	c-0.008,0-0.016,0-0.024-0.008c-0.08-0.016-0.152-0.04-0.232-0.056l-0.016-0.008c-0.032-0.008-0.064-0.016-0.096-0.024
	c-0.016-0.008-0.016,0-0.032-0.008c-0.032-0.008-0.056-0.016-0.088-0.024c-0.008,0-0.016-0.008-0.024-0.008
	c-0.072-0.016-0.152-0.04-0.224-0.056c-0.008,0-0.016-0.008-0.016-0.008c-0.04-0.008-0.064-0.016-0.096-0.024
	c-0.016,0-0.016,0-0.032-0.008c-0.032-0.008-0.056-0.016-0.088-0.024c-0.008,0-0.016-0.008-0.024-0.008
	c-0.04-0.008-0.072-0.016-0.112-0.024h-0.008c-0.032-0.008-0.072-0.016-0.104-0.024c-0.008,0-0.024-0.008-0.032-0.008
	c-0.024-0.008-0.056-0.016-0.08-0.016c-0.016,0-0.024-0.008-0.04-0.008c-0.024-0.008-0.048-0.016-0.072-0.016
	c-0.016,0-0.024-0.008-0.04-0.008c-0.032-0.008-0.072-0.016-0.104-0.024c-0.008,0-0.024-0.008-0.032-0.008
	c-0.024-0.008-0.056-0.016-0.08-0.016c-0.016,0-0.032-0.008-0.048-0.008c-0.024-0.008-0.04-0.008-0.064-0.016
	c-0.016,0-0.032-0.008-0.048-0.016c-0.024-0.008-0.04-0.008-0.064-0.016c-0.016,0-0.04-0.008-0.056-0.016
	c-0.032-0.008-0.064-0.016-0.096-0.024c-0.024-0.008-0.032-0.008-0.056-0.016c-0.016,0-0.032-0.008-0.048-0.008
	s-0.048-0.008-0.064-0.016c-0.016,0-0.032-0.008-0.04-0.008c-0.024-0.008-0.04-0.008-0.064-0.016c-0.008,0-0.016-0.008-0.024-0.008
	c-0.08-0.016-0.176-0.04-0.256-0.064c-0.008,0-0.016,0-0.024-0.008c-0.032-0.008-0.048-0.016-0.08-0.016
	c-0.008,0-0.008,0-0.016-0.008C314.632,6.744,313.432,6.464,312.232,6.192L312.232,6.192z M280.648,1.168l-0.76,7.96
	c5.128,0.488,10.304,1.144,15.376,1.952l1.256-7.904C291.28,2.352,285.992,1.68,280.648,1.168L280.648,1.168z M256,0v8
	c2.816,0,5.624,0.048,8.416,0.144l0.264-7.992c-1.24-0.04-2.472-0.072-3.72-0.096c-0.008,0-0.008,0-0.008,0
	c-0.136,0-0.264-0.008-0.392-0.008c-0.008,0-0.016,0-0.024,0c-0.032,0-0.056,0-0.088,0c-0.008,0-0.016,0-0.016,0
	c-0.088,0-0.184,0-0.272-0.008c-0.016,0-0.032,0-0.04,0c-0.016,0-0.056,0-0.072,0s-0.032,0-0.048,0c-0.088,0-0.16,0-0.24,0
	c-0.016,0-0.032,0-0.056,0c-0.016,0-0.048,0-0.064,0s-0.04,0-0.056,0c-0.024,0-0.04,0-0.064,0c-0.032,0-0.064,0-0.096,0
	c-0.016,0-0.048,0-0.064,0c-0.024,0-0.048,0-0.064,0s-0.04,0-0.056,0c-0.024,0-0.04,0-0.064,0s-0.032,0-0.056,0
	c-0.032,0-0.056,0-0.088,0c-0.024,0-0.04,0-0.072,0c-0.024,0-0.048,0-0.072,0c-0.016,0-0.04,0-0.056,0c-0.024,0-0.048,0-0.064,0
	s-0.04,0-0.056,0c-0.032,0-0.056,0-0.088,0c-0.016,0-0.04,0-0.056,0c-0.032,0-0.064,0-0.088,0c-0.008,0-0.04,0-0.048,0
	c-0.024,0-0.048,0-0.072,0c-0.016,0-0.032,0-0.048,0c-0.024,0-0.056,0-0.08,0c-0.008,0-0.04,0-0.048,0c-0.032,0-0.072,0-0.104,0
	c-0.016,0-0.032,0-0.048,0c-0.024,0-0.048,0-0.08,0c-0.016,0-0.032,0-0.048,0c-0.032,0-0.056,0-0.088,0c-0.008,0-0.024,0-0.032,0
	c-0.04,0-0.08,0-0.12,0c-0.016,0-0.016,0-0.032,0c-0.032,0-0.056,0-0.088,0c-0.016,0-0.024,0-0.04,0c-0.032,0-0.064,0-0.088,0
	c-0.016,0-0.016,0-0.032,0c-0.04,0-0.08,0-0.12,0c-0.016,0-0.016,0-0.032,0c-0.032,0-0.064,0-0.088,0c-0.016,0-0.024,0-0.048,0
	c-0.032,0-0.056,0-0.088,0c-0.016,0-0.016,0-0.032,0c-0.04,0-0.08,0-0.12,0c-0.008,0-0.016,0-0.024,0c-0.032,0-0.064,0-0.096,0
	c-0.016,0-0.024,0-0.04,0c-0.032,0-0.056,0-0.088,0c-0.008,0-0.032,0-0.04,0c-0.04,0-0.08,0-0.12,0c-0.008,0,0,0-0.008,0
	c-0.04,0-0.072,0-0.112,0c-0.008,0-0.032,0-0.04,0c-0.032,0-0.064,0-0.096,0c-0.008,0-0.024,0-0.032,0C256.08,0,256.04,0,256,0
	L256,0L256,0z"/>
<circle style="fill:#999999;" cx="256" cy="256" r="216.88"/>
<circle style="fill:#FFFFFF;" cx="342.984" cy="357.304" r="32.488"/>
<circle cx="342.984" cy="357.304" r="15.784"/>
<g>
	<polygon style="fill:#FFFFFF;" points="220.576,199.168 199.248,136.032 144,136.032 144,119.16 211.352,119.16 236.56,193.76 	"/>
	<circle style="fill:#FFFFFF;" cx="245" cy="357.304" r="32.488"/>
</g>
<polygon points="179.656,185 413.936,185 369.272,310.288 218.672,310.288 "/>
<polygon style="fill:#FFFFFF;" points="398.712,229.344 344.36,229.344 331.296,252.288 277.488,252.288 282.576,268.176 
	384.288,268.176 "/>
<circle cx="245" cy="357.304" r="15.784"/>
<g>
</g>
<g>
</g>
<g>
</g>
<g>
</g>
<g>
</g>
<g>
</g>
<g>
</g>
<g>
</g>
<g>
</g>
<g>
</g>
<g>
</g>
<g>
</g>
<g>
</g>
<g>
</g>
<g>
</g>
</svg>
